<?xml version="1.0" encoding="UTF-8" standalone="no"?>
<!-- Created with Inkscape (http://www.inkscape.org/) -->

<svg
   xmlns:dc="http://purl.org/dc/elements/1.1/"
   xmlns:cc="http://creativecommons.org/ns#"
   xmlns:rdf="http://www.w3.org/1999/02/22-rdf-syntax-ns#"
   xmlns:svg="http://www.w3.org/2000/svg"
   xmlns="http://www.w3.org/2000/svg"
   xmlns:sodipodi="http://sodipodi.sourceforge.net/DTD/sodipodi-0.dtd"
   xmlns:inkscape="http://www.inkscape.org/namespaces/inkscape"
   width="218.48727"
   height="214.90112"
   id="svg4904"
   version="1.1"
   inkscape:version="0.48.3.1 r9886"
   sodipodi:docname="logo.svg"
   inkscape:export-filename="/home/david/hg/grshells/grshell-cubicweb/nazca/logo.png"
   inkscape:export-xdpi="26.360001"
   inkscape:export-ydpi="26.360001">
  <defs
     id="defs4906" />
  <sodipodi:namedview
     id="base"
     pagecolor="#ffffff"
     bordercolor="#666666"
     borderopacity="1.0"
     inkscape:pageopacity="0.0"
     inkscape:pageshadow="2"
     inkscape:zoom="0.98994949"
     inkscape:cx="79.49193"
     inkscape:cy="144.30316"
     inkscape:document-units="px"
     inkscape:current-layer="layer1"
     showgrid="false"
     fit-margin-top="0"
     fit-margin-left="0"
     fit-margin-right="0"
     fit-margin-bottom="0"
     inkscape:window-width="1362"
     inkscape:window-height="729"
     inkscape:window-x="0"
     inkscape:window-y="18"
     inkscape:window-maximized="0" />
  <metadata
     id="metadata4909">
    <rdf:RDF>
      <cc:Work
         rdf:about="">
        <dc:format>image/svg+xml</dc:format>
        <dc:type
           rdf:resource="http://purl.org/dc/dcmitype/StillImage" />
        <dc:title></dc:title>
      </cc:Work>
    </rdf:RDF>
  </metadata>
  <g
     inkscape:label="Calque 1"
     inkscape:groupmode="layer"
     id="layer1"
     transform="translate(-253.86022,-322.8735)">
    <path
       inkscape:connector-curvature="0"
       id="path5026"
       d="m 402.18054,536.08374 c -4.67611,-3.08395 -6.82338,-6.67381 -6.82338,-11.4075 0,-2.97085 -1.15458,-6.76331 -3.60529,-11.84227 -6.86149,-14.22012 -10.39471,-24.72407 -10.39471,-30.90253 0,-5.00775 0.51484,-6.55575 3.94587,-11.86421 4.44651,-6.87962 8.23531,-9.71445 19.05413,-14.25654 4.125,-1.73181 7.90933,-3.53551 8.40961,-4.00824 1.70844,-1.61431 -9.27841,-15.94115 -15.97679,-20.83369 -5.25452,-3.83794 -10.5809,-4.56137 -17.00803,-2.31003 -7.32143,2.56459 -20.42479,10.30147 -20.42479,12.0598 0,1.64755 6.2499,22.40878 8.55363,28.41389 0.87138,2.27142 1.44637,7.31115 1.44637,12.67733 0,8.20373 -0.27156,9.4281 -3.43892,15.50473 -1.8914,3.6287 -6.19102,10.01869 -9.5547,14.19999 l -6.11578,7.60235 2.18121,2.3218 c 2.46377,2.62256 1.98943,5.42356 -0.91845,5.42356 -1.05018,0 -2.60005,1.0125 -3.44415,2.25 l -1.53474,2.25 -7.33724,-3.89738 c -9.34831,-4.96562 -9.83723,-5.37215 -9.83723,-8.17961 l 0,-2.3321 -2.45455,2.45454 c -3.25333,3.25333 -5.73203,3.09527 -9.73373,-0.62071 -1.82145,-1.69139 -5.39306,-4.14551 -7.93693,-5.45361 -5.10019,-2.62259 -6.39326,-4.63384 -4.84234,-7.53176 1.29173,-2.41363 4.95022,-3.35766 9.92765,-2.56174 3.46013,0.5533 4.14089,0.29106 6.4891,-2.49962 5.28397,-6.27965 5.89596,-8.48753 4.94309,-17.83314 -0.47917,-4.69968 -0.87596,-13.39686 -0.88176,-19.32708 l -0.0105,-10.78221 -3,-1.90628 c -1.65,-1.04846 -7.275,-3.53486 -12.5,-5.52533 -11.51004,-4.38478 -23.22765,-11.10496 -30.03514,-17.22547 -6.31157,-5.67465 -16.76831,-20.56481 -21.71011,-30.91471 -3.6365,-7.61614 -3.75465,-8.21021 -3.75167,-18.86379 0.003,-9.85749 0.30425,-11.72705 2.90265,-18 7.73719,-18.67875 21.54092,-31.47097 38.96615,-36.1108 2.82047,-0.751 9.90516,-1.3708 15.74376,-1.37733 10.2257,-0.0114 10.88347,0.12212 17.90685,3.63577 8.97812,4.49157 19.4865,14.54901 23.2985,22.2987 4.75868,9.67426 3.39035,17.12167 -6.9392,37.76809 -6.43746,12.867 -10.46988,17.51729 -18.31521,21.1215 -10.03162,4.6086 -28.11327,4.11526 -35.24304,-0.96158 -3.47729,-2.47605 -14.91642,-18.7269 -18.30316,-26.00215 -1.72199,-3.69909 -2.49732,-7.08511 -2.48952,-10.8722 0.0134,-6.51099 3.71544,-17.74102 7.7469,-23.5 5.73652,-8.19468 18.45543,-13.11721 31.88368,-12.33978 8.39923,0.48628 14.42698,3.24001 21.75762,9.9398 7.38796,6.75218 8.87808,10.26204 8.3906,19.76339 -0.66859,13.03118 -8.15967,24.84653 -19.62871,30.95946 -9.3758,4.99725 -15.31569,4.09073 -25.98677,-3.96601 -4.32158,-3.26283 -6.09027,-5.53619 -8.88392,-11.41881 -1.91844,-4.03971 -3.73281,-9.16953 -4.03193,-11.3996 -1.09759,-8.18315 5.74491,-18.84002 13.47507,-20.98681 2.06063,-0.57227 6.57703,-1.043 10.03644,-1.04606 7.82569,-0.007 12.11696,2.04921 18.48478,8.85692 3.78845,4.05016 4.72538,5.75215 4.72538,8.58393 0,7.89858 -6.32917,19.05829 -12.45833,21.96677 -2.86886,1.36137 -4.13233,1.41524 -8.66319,0.36939 -6.05583,-1.39785 -13.24349,-7.40441 -14.40681,-12.03943 -1.79385,-7.14729 3.41445,-15.82759 10.66884,-17.781 4.65619,-1.25378 6.80454,-0.72072 10.86489,2.69583 3.79407,3.19251 4.07232,8.44147 0.71268,13.44413 -2.69435,4.012 -7.31729,4.97474 -11.53885,2.40298 -2.67515,-1.62968 -2.67486,-1.62818 0.18679,0.98319 2.27922,2.07989 3.69195,2.55357 6.90003,2.31354 5.3014,-0.39666 7.90305,-3.79581 8.51035,-11.1191 0.40535,-4.888 0.16674,-5.71481 -2.51563,-8.71691 -2.5993,-2.90912 -3.69798,-3.36982 -8.94067,-3.74905 -18.59431,-1.34499 -23.3754,16.10399 -8.28119,30.22285 4.03412,3.77346 5.52989,4.55659 8.66825,4.53842 15.65234,-0.0906 28.5743,-22.88772 20.17102,-35.58594 -4.37598,-6.61255 -9.75352,-9.62105 -18.15074,-10.15455 -8.73805,-0.55517 -13.97466,0.73735 -20.36296,5.02604 -7.24512,4.86391 -9.50611,9.49411 -9.14921,18.73641 0.3549,9.19075 3.33069,15.85368 10.84346,24.27909 6.8962,7.73394 9.07825,8.72558 19.14161,8.69895 13.98036,-0.037 16.21511,-1.70725 27.26209,-20.3757 5.38033,-9.0923 5.89122,-10.47558 6.27874,-17 0.40094,-6.75037 0.24115,-7.39968 -3.22428,-13.10234 -7.7182,-12.70098 -14.25412,-16.58165 -29.12241,-17.29131 -10.18663,-0.48621 -16.86663,0.97727 -26.3422,5.77114 -10.13185,5.1259 -13.30423,9.58267 -17.15954,24.10687 -1.51449,5.70557 -2.2589,11.48043 -2.31298,17.9433 -0.0768,9.18207 0.0477,9.74058 3.41069,15.29811 7.1247,11.77388 18.36016,20.77343 36.37054,29.13262 7.92612,3.67876 10.09204,5.24791 15.06988,10.91775 3.19736,3.64184 6.38475,6.62152 7.0831,6.62152 0.69835,0 3.45589,-1.95074 6.12788,-4.33497 6.08873,-5.43303 18.46475,-12.11993 33.35815,-18.02377 14.97275,-5.9353 21.6859,-7.64672 25.19554,-6.42325 4.17819,1.45653 11.48312,8.3986 16.7914,15.9573 4.61167,6.56679 4.80458,6.71524 4.6619,3.58747 -0.12219,-2.67867 0.2546,-3.32007 2.10472,-3.5828 1.23945,-0.17601 4.54717,-1.86351 7.35048,-3.75 10.40514,-7.00214 21.02166,-2.59977 25.38092,10.52475 1.06241,3.19862 2.72616,5.77147 4.59068,7.09913 3.27418,2.33142 3.98852,6.81807 1.42436,8.94614 -0.825,0.68469 -1.5,1.58524 -1.5,2.00122 0,0.41598 2.30556,3.17338 5.12347,6.12756 10.73039,11.24928 12.88085,16.14135 12.86676,29.27044 -0.013,12.08692 -2.27099,17.06943 -11.38411,25.12004 -3.65802,3.23152 -8.04683,8.0508 -9.75292,10.7095 -3.99206,6.2211 -6.15011,7.44229 -8.56711,4.84795 -1.34662,-1.44543 -2.98425,-1.89696 -6.40042,-1.76475 -5.46128,0.21136 -8.27356,-1.63035 -7.45707,-4.8835 0.37054,-1.47635 0.0297,-2.42234 -1.0175,-2.8242 -2.21857,-0.85135 -2.4111,-0.78435 -2.4111,0.83904 0,0.79381 -0.99417,2.13964 -2.20927,2.99073 -1.72773,1.21015 -1.94569,1.81101 -1,2.7567 1.81022,1.81022 1.4593,4.60509 -0.72499,5.77409 -1.06384,0.56935 -4.16136,1.03518 -6.88337,1.03518 -4.1081,0 -5.03798,0.33986 -5.47212,2 -0.64514,2.46701 -3.3502,2.55403 -6.88687,0.22156 z m 23.06274,-19.89402 c 1.12261,-0.29904 1.0705,-0.71799 -0.27411,-2.20377 -1.54541,-1.70766 -1.33087,-5.12377 0.32179,-5.12377 0.3959,0 0.52497,-1.32756 0.28683,-2.95013 -0.3654,-2.48959 0.0909,-3.26954 2.92319,-4.99626 3.96669,-2.41834 6.92824,-2.58482 10.75734,-0.60472 3.05369,1.57912 6.09884,5.58147 6.09884,8.01593 0,2.27559 4.16074,1.90452 8.01513,-0.71482 4.12321,-2.80203 6.87207,-8.00194 7.63487,-14.4426 0.50383,-4.25404 0.0702,-6.11967 -3.09569,-13.32031 -4.01343,-9.12819 -8.08698,-15.6994 -10.76346,-17.36299 -1.29911,-0.80747 -2.80492,-0.52996 -6.27675,1.15679 -6.11592,2.97134 -9.20877,2.79861 -14.93717,-0.83424 -6.2549,-3.96674 -7.77348,-3.5945 -21.01585,5.15138 -12.6617,8.36238 -14.38157,10.83553 -12.6754,18.22705 1.80104,7.80255 9.3219,28.05315 10.90779,29.37026 1.12588,0.93505 2.26895,0.86337 5.24943,-0.32918 4.97175,-1.9893 8.36747,-1.49479 8.76253,1.27605 0.2765,1.93938 0.6079,2.04338 3.5,1.09839 1.75701,-0.5741 3.81832,-1.20998 4.58069,-1.41306 z M 348.3913,501.52928 c 3.87449,-6.12279 7.3258,-12.25302 7.66957,-13.62273 0.49316,-1.96491 -3.68726,-27.93883 -6.40478,-39.79437 -0.61957,-2.70294 -2.91593,-2.87715 -7.72104,-0.58575 -4.17435,1.99061 -4.19863,2.04551 -5.61618,12.69778 -0.80348,6.03775 -0.81643,9.49847 -0.0459,12.27337 1.54817,5.57565 1.36637,21.76716 -0.28796,25.64672 -0.7547,1.76983 -2.77412,4.96024 -4.48761,7.0898 l -3.11544,3.87192 2.05034,2.1303 c 1.62296,1.68625 2.97417,2.05682 6.48242,1.7778 l 4.43209,-0.3525 7.04452,-11.13234 z M 309.89828,364.92871 c -0.36253,-0.58659 -1.1377,-1.06653 -1.72258,-1.06653 -0.6631,0 -0.58723,0.57378 0.20152,1.52417 1.37154,1.6526 2.59733,1.2838 1.52106,-0.45764 z"
       style="fill:#d0d0d0" />
    <path
       inkscape:connector-curvature="0"
       id="path5024"
       d="m 399.66664,532.43482 c -4.03565,-4.03566 -4.36891,-4.73894 -3.76669,-7.94903 0.54723,-2.91699 -0.18929,-5.37621 -4.28954,-14.32264 -8.24396,-17.98767 -9.7635,-22.38077 -9.63027,-27.84182 0.25274,-10.3602 7.06806,-18.63389 20.31182,-24.65825 10.85242,-4.93658 11.37267,-5.22331 11.79923,-6.503 0.58227,-1.74679 -11.57318,-17.08266 -16.57832,-20.91597 -4.45348,-3.41081 -4.94923,-3.5494 -11.41295,-3.19071 -5.76645,0.31999 -8.17498,1.11143 -16.42613,5.39755 -5.31789,2.76241 -10.11947,5.73689 -10.67018,6.60995 -1.04305,1.65358 0.60407,8.20429 6.48752,25.80128 2.23156,6.67447 2.84241,10.32553 2.84421,17 0.003,11.47218 -2.42672,16.78335 -14.21161,31.06436 -4.07722,4.9408 -4.59943,6.99954 -2.26657,8.93564 2.19135,1.81866 1.92669,2.36537 -2.5703,5.30964 l -4.0703,2.6649 -7.4297,-4.07766 c -7.12766,-3.91188 -7.4297,-4.22533 -7.4297,-7.71013 l 0,-3.63247 -2.94363,3.22286 c -1.619,1.77257 -3.71015,3.22286 -4.64701,3.22286 -0.93686,0 -3.59553,-1.55048 -5.90816,-3.4455 -2.31263,-1.89503 -5.82669,-4.21894 -7.80903,-5.16425 -4.41774,-2.10668 -5.29436,-4.06736 -2.96787,-6.6381 1.45303,-1.60558 2.72642,-1.87951 7.06482,-1.51973 4.98883,0.41371 5.46092,0.24683 8.23289,-2.91027 5.58893,-6.36544 6.33833,-8.84166 5.38043,-17.77836 -0.47421,-4.42408 -0.87125,-13.191 -0.88232,-19.48203 l -0.0201,-11.43824 -3.40847,-1.99637 c -1.87466,-1.098 -7.67037,-3.70464 -12.87934,-5.79254 -24.82392,-9.95011 -39.63442,-23.75777 -50.98831,-47.53582 -3.35956,-7.0358 -3.75395,-8.72822 -4.03119,-17.29879 -0.26204,-8.10019 0.07,-10.59567 2.25365,-16.93588 4.53792,-13.17609 14.68056,-25.99801 25.55366,-32.30393 8.6812,-5.03471 15.91324,-6.76019 28.3341,-6.76019 11.11928,0 11.57543,0.0892 18.70702,3.65696 8.84038,4.42267 18.40545,13.58471 22.26219,21.32418 4.75843,9.54893 3.66887,16.18994 -5.83378,35.55766 -6.38838,13.02041 -10.82335,18.55457 -17.83168,22.25118 -4.79368,2.52848 -5.97588,2.71002 -17.6481,2.71002 -15.19212,0 -16.45968,-0.60919 -25.00144,-12.01561 -13.651,-18.22916 -15.65208,-26.64153 -9.89092,-41.5807 5.48662,-14.22729 14.14104,-20.01528 30.98308,-20.72115 8.74959,-0.36671 10.06714,-0.1713 15.19221,2.25325 6.91197,3.26988 14.90596,10.31355 17.20602,15.16058 2.64238,5.56839 1.81803,17.26991 -1.72538,24.49153 -5.3238,10.85013 -16.82621,19.9121 -25.27454,19.9121 -4.53777,0 -9.44064,-2.0676 -15.56707,-6.56481 -3.74121,-2.7463 -5.72328,-5.29834 -8.53756,-10.99265 -6.11237,-12.36754 -5.45556,-20.31183 2.28427,-27.62892 3.97004,-3.75321 7.38581,-4.81362 15.50555,-4.81362 8.63829,0 12.23796,1.58413 18.28161,8.04528 3.96052,4.23411 4.55442,5.43583 4.55442,9.21553 0,5.63736 -3.94712,13.55525 -9.06011,18.17453 -4.35704,3.93632 -5.02545,4.07552 -11.60953,2.41763 -5.27204,-1.32752 -11.82722,-7.00014 -12.86434,-11.13234 -3.06739,-12.22144 11.5342,-22.63936 20.28398,-14.47219 2.8584,2.66808 2.97089,8.05695 0.26096,12.50156 -1.6238,2.66322 -2.6091,3.25 -5.45731,3.25 -3.50276,0 -7.55365,-3.00681 -7.55365,-5.60677 0,-4.17834 3.52341,-5.87734 6,-2.89323 1.70333,2.05239 3,1.88252 3,-0.39301 0,-3.66419 -7.0348,-4.32309 -9.4433,-0.88448 -1.94926,2.78295 -1.95066,4.14502 -0.009,8.2378 1.75309,3.69438 5.02572,5.53969 9.82454,5.53969 5.35647,0 9.62726,-6.06013 9.62726,-13.66081 0,-10.35713 -12.04567,-15.63235 -23.03811,-10.08919 -10.55879,5.32449 -10.25507,18.48952 0.67914,29.43815 7.17167,7.18113 15.57083,6.84483 24.04088,-0.96259 6.195,-5.71036 8.53569,-10.71603 9.10781,-19.47746 0.42828,-6.55882 0.22579,-7.62627 -2.11874,-11.16909 -5.00932,-7.5696 -11.90925,-11.07901 -21.78269,-11.07901 -10.87011,0 -21.80151,5.98924 -26.0186,14.25543 -2.95731,5.7968 -2.30435,16.09918 1.52354,24.03841 3.05098,6.3279 12.29027,16.97401 16.71815,19.26376 3.34614,1.73035 15.62789,1.91767 21.38862,0.3262 5.27843,-1.45822 9.75206,-6.30462 16.5,-17.8749 6.36725,-10.91752 7.81697,-14.77141 7.92315,-21.06256 0.13359,-7.91594 -8.59639,-21.65635 -16.28765,-25.63564 -14.54886,-7.52729 -36.51314,-4.80964 -51.39473,6.35909 -6.71176,5.03722 -12.38259,22.0751 -12.6016,37.8612 -0.13593,9.79731 -0.0576,10.16663 3.36083,15.85366 7.32033,12.17825 18.90022,21.50676 37.30224,30.04989 7.8717,3.65443 10.03894,5.22847 15.03232,10.91776 3.20901,3.65623 6.40816,6.6477 7.10921,6.6477 0.70106,0 3.42634,-1.89399 6.05619,-4.20888 3.80956,-3.35331 18.69912,-12.79112 20.17991,-12.79112 0.18617,0 4.94686,-1.94632 10.57931,-4.32516 5.63245,-2.37884 13.73555,-5.34236 18.00689,-6.58561 l 7.76608,-2.26043 4.31757,2.53026 c 5.56083,3.25887 10.47611,8.75117 17.3043,19.33572 5.85433,9.07495 7.64186,10.38089 4.38571,3.20412 -2.61763,-5.76944 -2.59974,-7.8989 0.0664,-7.8989 1.15835,0 3.89893,-1.41996 6.09018,-3.15546 9.82118,-7.77851 22.31614,-2.79642 25.84391,10.3047 0.61571,2.2866 2.21769,4.72088 3.94925,6.00108 3.98608,2.94703 4.45175,4.76166 2.05416,8.00458 -1.12398,1.52026 -2.0436,3.06756 -2.0436,3.43844 0,0.37088 3.05316,3.88851 6.7848,7.81696 9.4665,9.96576 11.21769,14.08044 11.20543,26.3288 -0.0128,12.79982 -2.11215,17.56496 -11.28737,25.62035 -3.62137,3.17939 -7.98223,7.95918 -9.6908,10.62176 -3.67377,5.72508 -5.44787,6.66237 -7.3825,3.90031 -1.20247,-1.71678 -2.10523,-1.9348 -5.77736,-1.39526 -3.0931,0.45446 -4.92696,0.21344 -6.33892,-0.83309 -1.91213,-1.41724 -1.91962,-1.54669 -0.19949,-3.44742 1.73627,-1.91855 1.70024,-2.00521 -1.26327,-3.03829 -2.80191,-0.97675 -4.37185,-4.16746 -2.05055,-4.16746 0.55,0 1,-0.45 1,-1 0,-0.55 -0.64844,-1 -1.44098,-1 -2.5447,0 -2.95598,-2.26014 -0.73809,-4.05608 1.85784,-1.50439 1.94451,-1.8937 0.6591,-2.96049 -2.18601,-1.81423 -1.83875,-2.79411 1.76997,-4.99439 6.09151,-3.71406 12.42998,-1.65296 15.36339,4.99576 2.09439,4.74702 4.38546,5.16389 9.48873,1.7265 5.25333,-3.53847 8.37666,-10.00685 8.31065,-17.2113 -0.0456,-4.97615 -0.79397,-7.51668 -4.3857,-14.88812 -4.54127,-9.32023 -9.24452,-15.61188 -11.6705,-15.61188 -0.78994,0 -3.20039,0.9 -5.35657,2 -5.38652,2.748 -8.19914,2.52205 -14.91478,-1.19815 l -5.77324,-3.19815 -5.40599,2.75447 c -8.67954,4.42243 -20.7383,13.41687 -22.4653,16.75652 -1.36136,2.63259 -1.41522,3.83078 -0.37006,8.23314 2.0943,8.82142 9.77125,29.06338 11.50274,30.32948 1.31995,0.96517 2.6393,0.81552 6.61057,-0.74981 5.36294,-2.11387 6.81606,-1.87671 6.81606,1.11246 0,1.21608 -0.91817,2.15238 -2.5,2.5494 -1.375,0.3451 -2.5,1.02867 -2.5,1.51905 0,1.54092 3.13067,0.97395 6.65735,-1.20566 3.82001,-2.36089 6.34265,-1.94719 6.34265,1.04019 0,1.25062 -1.22112,2.63716 -3.24364,3.68305 -3.19024,1.64974 -3.20671,1.69384 -1,2.6785 2.58852,1.15503 2.98422,4.19734 0.66185,5.08852 -0.86998,0.33385 -4.01998,0.60699 -7,0.60699 -4.75154,0 -5.41821,0.24608 -5.41821,2 0,3.43337 -3.9265,2.33666 -8.69052,-2.42736 z m -61.69099,-18.57264 c 3.28983,0 3.78644,-0.50929 10.39298,-10.65852 9.75966,-14.99317 9.68727,-14.64332 6.54578,-31.63497 -4.86259,-26.3007 -4.82801,-26.17386 -7.23048,-26.516 -3.52701,-0.50228 -10.18903,3.45589 -11.06077,6.57165 -0.4213,1.50581 -0.63296,11.28784 -0.47034,21.73784 0.1626,10.45 0.0316,20.45222 -0.29103,22.22715 -0.32268,1.77493 -2.14322,5.26633 -4.04566,7.75865 -1.90243,2.49233 -3.45897,4.99344 -3.45897,5.55804 0,2.15998 3.33432,6.04185 4.72971,5.50639 0.78862,-0.30263 2.98858,-0.55023 4.88878,-0.55023 z m 101.38151,-3.39301 c 0,-1.49032 -2.1136,-2.62099 -4.83179,-2.58475 -1.28251,0.0171 -1.0902,0.47436 0.83179,1.97776 2.97884,2.33008 4,2.48504 4,0.60699 z"
       style="fill:#afafaf" />
    <path
       inkscape:connector-curvature="0"
       id="path5022"
       d="m 403.16002,535.06085 c -4.64902,-3.04971 -6.80286,-6.65417 -6.80286,-11.38461 0,-2.97085 -1.15458,-6.76331 -3.60529,-11.84227 -1.9829,-4.10949 -5.17079,-11.52179 -7.08418,-16.47179 -4.29122,-11.10147 -4.22695,-16.881 0.26805,-24.10817 3.97238,-6.38686 8.48727,-9.78642 19.00916,-14.31324 6.39406,-2.75091 8.99612,-4.38488 9.20906,-5.78286 0.33863,-2.22311 -6.79104,-12.35142 -12.79863,-18.1816 -7.53384,-7.31134 -13.77341,-8.71126 -23.07464,-5.17707 -6.70482,2.54763 -19.68851,10.00811 -20.33093,11.68223 -0.53069,1.38295 1.3659,8.12843 7.02025,24.96849 6.37186,18.977 4.5419,28.22775 -8.96612,45.32511 -3.6557,4.62709 -6.64673,8.95949 -6.64673,9.62755 0,0.66807 0.675,1.77487 1.5,2.45956 2.14453,1.77981 1.86147,2.91207 -1,4 -1.375,0.52277 -2.5,1.41164 -2.5,1.97525 0,1.91189 -3.4795,0.92797 -9.99534,-2.82644 -3.57243,-2.05843 -6.64709,-4.53061 -6.83257,-5.49374 -0.53714,-2.78912 1.77303,-4.65507 5.76326,-4.65507 4.39591,0 6.61769,-2.11108 13.37392,-12.70756 6.63442,-10.40544 7.69214,-12.74615 7.67872,-16.99278 -0.0134,-4.23303 -6.3159,-38.40318 -7.40972,-40.17301 -1.02218,-1.65393 -2.97914,-1.39174 -8.06891,1.08106 -5.68835,2.76362 -6.86324,6.29143 -6.59156,19.79229 0.10515,5.225 0.27916,14.26502 0.38669,20.08894 l 0.19551,10.58895 -4,5.91105 c -5.10511,7.54415 -4.99495,7.20667 -3.05283,9.35269 1.54981,1.71252 1.47856,2.01004 -1.14738,4.79135 -4.28693,4.54059 -5.8384,4.67558 -10.07215,0.87636 -2.0502,-1.83977 -5.64014,-4.31366 -7.97764,-5.49752 -7.61086,-3.85462 -4.51127,-8.88557 4.69439,-7.61947 4.64178,0.63841 4.85218,0.5523 7.82633,-3.20285 1.68096,-2.1224 3.85312,-5.52986 4.82702,-7.57214 1.69402,-3.55241 1.69411,-4.20172 0.002,-14.99164 -1.45583,-9.28287 -1.5695,-12.37741 -0.64246,-17.48975 1.7462,-9.6297 1.75854,-9.61687 -16.12909,-16.76089 -13.57025,-5.41973 -22.80539,-10.77375 -30.129,-17.46712 -6.57269,-6.00707 -16.37371,-20.02556 -21.48562,-30.73109 -3.48343,-7.29511 -3.71266,-8.36537 -3.70041,-17.27687 0.0159,-11.56466 2.66138,-19.77814 9.91723,-30.7903 10.4674,-15.88629 26.6004,-24.2097 46.92488,-24.2097 8.22855,0 9.53622,0.28885 16.5399,3.65353 12.98331,6.23739 26.10493,21.7498 26.10493,30.86131 0,5.25268 -2.85245,13.41697 -9.13839,26.15587 -6.68295,13.54351 -10.7659,18.44466 -18.28036,21.94371 -4.41186,2.05434 -6.59829,2.36733 -16.59685,2.37581 -9.34704,0.008 -12.17177,-0.342 -15,-1.85819 -4.52904,-2.42799 -13.78982,-14.46303 -19.08837,-24.80668 -3.87603,-7.56666 -4.14787,-8.61145 -3.65493,-14.04766 0.75363,-8.31116 5.98835,-20.34883 10.7,-24.60552 7.86366,-7.10434 23.88812,-10.48473 34.25079,-7.22527 7.27535,2.28837 16.61849,9.39878 20.11568,15.30863 2.51422,4.24872 2.7658,5.47587 2.40782,11.74446 -0.73669,12.89997 -8.90838,25.31074 -20.17502,30.64081 -7.38995,3.49608 -9.7593,3.55307 -16.09403,0.38713 -10.28807,-5.14172 -14.75232,-10.6432 -18.88788,-23.27629 -2.03624,-6.22019 -1.52611,-9.44993 2.43628,-15.42462 4.35562,-6.56762 7.70275,-8.09866 17.54625,-8.02599 9.85466,0.0727 12.22395,1.10209 18.85549,8.19174 4.58686,4.90373 4.79984,5.37805 4.17352,9.29484 -1.60263,10.02231 -8.76586,19.71238 -14.57206,19.71238 -5.77812,0 -10.93787,-2.1911 -14.53447,-6.17211 -3.00018,-3.32084 -3.46347,-4.51783 -3.46347,-8.94842 0,-4.60806 0.38461,-5.49938 3.88235,-8.99712 3.27572,-3.27571 4.53778,-3.88235 8.07693,-3.88235 3.30277,0 4.81604,0.62147 7.11764,2.92308 3.29988,3.29988 3.52247,4.7066 1.50774,9.52855 -2.51696,6.02391 -8.82859,7.15811 -12.0947,2.1734 -2.91926,-4.45536 0.74598,-7.53145 4.70493,-3.94866 1.44406,1.30686 2.11774,1.411 3.05626,0.47248 1.9943,-1.9943 -0.46568,-4.60757 -4.67221,-4.96338 -4.77799,-0.40414 -6.57894,1.16017 -6.57894,5.71447 0,8.15881 9.53041,13.91898 15.7832,9.53936 5.2032,-3.64447 7.3468,-14.53956 3.89665,-19.80515 -5.52221,-8.42796 -23.55437,-7.57884 -28.15924,1.326 -1.91798,3.70896 -1.95604,11.06197 -0.0805,15.5508 2.1339,5.10715 10.22988,13.30393 14.23168,14.40888 4.79585,1.3242 12.44727,-1.12918 17.35799,-5.56572 9.15213,-8.26839 12.42759,-23.51837 6.86023,-31.93999 -8.57369,-12.96923 -28.03915,-14.67534 -42.64926,-3.73813 -5.16437,3.86607 -7.24077,8.99665 -7.24077,17.89121 0,6.40353 0.47823,8.64567 2.94124,13.78983 3.72359,7.77694 11.78298,16.84696 17.37532,19.55417 8.15872,3.94957 22.68459,1.9338 28.58518,-3.96679 1.6557,-1.65569 6.06188,-8.05802 9.79152,-14.22738 6.58679,-10.89553 6.79162,-11.43704 7.14648,-18.89331 0.3289,-6.91078 0.0809,-8.20716 -2.4872,-13 -1.5689,-2.92805 -4.90414,-7.39675 -7.41165,-9.93045 -10.71736,-10.8293 -29.9691,-12.55884 -47.85455,-4.29915 -12.76463,5.89484 -16.54026,10.8569 -20.68081,27.17944 -3.39823,13.39622 -3.31413,24.01044 0.24687,31.15643 5.74424,11.52717 19.20255,22.8443 37.50392,31.53712 10.65391,5.06042 10.8263,5.18728 16.6908,12.28289 5.39701,6.52998 7.35099,6.66117 13.79473,0.92622 2.67198,-2.37808 8.23315,-6.16343 12.35815,-8.41189 15.46794,-8.43128 39.58767,-17.0866 44.31134,-15.90104 4.32095,1.08449 12.88139,9.86294 19.39285,19.88671 3.48349,5.3625 6.77511,9.75 7.31471,9.75 1.35352,0 1.3053,-0.20989 -1.51144,-6.57905 -2.66631,-6.029 -2.55185,-7.42095 0.6102,-7.42095 1.09979,0 3.6671,-1.34002 5.70513,-2.97783 9.40428,-7.55749 20.3032,-3.19108 24.64217,9.87234 1.08113,3.25496 2.73582,5.82433 4.61068,7.15935 3.47104,2.4716 3.68522,4.50734 0.79758,7.5811 l -2.12679,2.26385 7.0253,7.8006 c 9.87813,10.96825 11.56163,14.60391 12.06222,26.04949 0.38753,8.86067 0.25066,9.63693 -2.78727,15.80785 -2.43695,4.95014 -4.47442,7.43489 -8.58897,10.47449 -2.96677,2.19169 -7.22521,6.68126 -9.46319,9.97682 -4.20429,6.1911 -6.41447,7.39488 -7.47018,4.06864 -0.53467,-1.68461 -1.28504,-1.85368 -6.04593,-1.36232 -4.50568,0.46503 -5.54617,0.27263 -6.08238,-1.12474 -0.40569,-1.05721 0.0524,-2.20046 1.22854,-3.06626 2.03271,-1.49632 2.21175,-1.32488 -3.12457,-2.992 -0.825,-0.25773 -1.5,-1.15773 -1.5,-2 0,-0.84226 0.675,-1.53138 1.5,-1.53138 2.43183,0 1.71445,-1.72936 -1,-2.41064 -3.03056,-0.76063 -3.2844,-3.20562 -0.42697,-4.11254 1.94881,-0.61853 1.9729,-0.76859 0.40204,-2.50437 -2.05732,-2.27331 -1.23041,-3.7589 3.09918,-5.56792 5.38151,-2.24854 11.7002,1.01559 12.94601,6.68769 0.83074,3.78235 1.82957,4.27746 5.91151,2.9303 7.02589,-2.31875 12.50712,-10.76285 12.54627,-19.32811 0.026,-5.69039 -5.23211,-18.6231 -10.54835,-25.94441 -3.95179,-5.44225 -6.18427,-5.93618 -12.42969,-2.75 -5.24137,2.67395 -6.7559,2.54066 -12.49615,-1.0997 -3.82896,-2.42825 -5.61665,-2.9814 -8.25283,-2.55361 -3.44452,0.55897 -13.07211,6.14725 -21.4481,12.44943 -7.92733,5.96461 -8.37075,9.87832 -2.89148,25.5207 5.46333,15.59689 7.17077,19.50075 8.80304,20.12711 0.9021,0.34617 3.8112,-0.15129 6.46466,-1.10546 3.88862,-1.39833 5.0666,-1.48937 6.07267,-0.46934 0.99947,1.01334 0.8614,1.55099 -0.69294,2.69819 -1.06762,0.78797 -2.53012,1.43268 -3.25,1.43268 -1.85117,0 -1.6272,1.66387 0.3248,2.41292 0.89852,0.34479 3.17424,-0.28206 5.05716,-1.39301 1.88292,-1.11095 4.33076,-2.01991 5.43965,-2.01991 3.11492,0 1.90648,3.25051 -1.85884,5 -3.9196,1.82117 -4.07749,2.74312 -0.69036,4.0309 4.48084,1.70362 2.22971,3.43531 -5.15966,3.9691 -4.43904,0.32066 -6.92162,0.9304 -6.92162,1.7 0,2.61563 -2.01459,3.2584 -4.69714,1.49867 z m 36.5218,-23.85666 c 1.36667,-1.36667 -1.70967,-3.34181 -5.1971,-3.33675 l -3.62756,0.005 3,1.92164 c 3.23336,2.07111 4.78727,2.44723 5.82466,1.40984 z"
       style="fill:#8f8f8f" />
    <path
       inkscape:connector-curvature="0"
       id="path5020"
       d="m 400.18277,531.92309 c -3.49834,-3.49835 -3.86756,-4.3204 -3.29978,-7.34693 0.52288,-2.78718 -0.31146,-5.4846 -4.58121,-14.8109 -7.89453,-17.24387 -10.19749,-24.43525 -9.38617,-29.31 1.58486,-9.52251 8.04464,-16.69172 20.02932,-22.22898 4.00463,-1.85025 7.6909,-3.3641 8.1917,-3.3641 0.50081,0 1.72156,-0.89615 2.7128,-1.99145 1.74999,-1.93373 1.6956,-2.15207 -1.87633,-7.53179 -4.71705,-7.10439 -10.08948,-13.05809 -15.01598,-16.64065 -6.98939,-5.08269 -17.08732,-3.5042 -31.49502,4.92325 -3.51728,2.05735 -6.8689,4.49473 -7.44805,5.41639 -0.79584,1.26652 -0.10775,4.80754 2.81764,14.5 2.12885,7.05334 4.46797,14.0394 5.19805,15.52459 0.81726,1.66254 1.32742,6.3091 1.32742,12.09028 0,8.41187 -0.30872,10.0055 -2.96386,15.29966 -1.63013,3.25034 -5.67254,9.28472 -8.98313,13.40972 -5.46197,6.80562 -7.64924,12 -5.05301,12 2.02192,0 0.91576,2.68616 -1.99121,4.83538 l -2.99121,2.2115 -6.99182,-3.77344 c -6.01254,-3.24493 -6.99419,-4.15594 -7.00878,-6.50439 -0.0177,-2.85361 1.00714,-3.40164 7.47087,-3.99484 2.46813,-0.22651 3.89301,-1.57881 8.19146,-7.77421 2.86199,-4.125 6.65838,-10.33437 8.43643,-13.7986 l 3.23282,-6.2986 -2.35531,-12.7014 c -5.97949,-32.24539 -5.24559,-29.6712 -8.54161,-29.96023 -1.66381,-0.1459 -4.69688,0.73746 -6.95164,2.02462 -5.81764,3.32109 -6.57156,7.03534 -5.84556,28.79878 0.32226,9.66051 0.26727,19.01538 -0.12219,20.7886 -0.38946,1.77322 -2.24355,5.23556 -4.12018,7.69409 -3.29536,4.31714 -4.47549,8.45274 -2.41207,8.45274 0.55,0 1,0.675 1,1.5 0,0.825 -0.41968,1.5 -0.93261,1.5 -0.51294,0 -1.21793,0.89895 -1.56665,1.99768 -1.16224,3.66188 -4.98613,3.55381 -9.71201,-0.27446 -2.3588,-1.91079 -5.7227,-4.202 -7.47532,-5.09158 -4.03507,-2.04808 -4.81413,-3.32338 -3.21056,-5.25557 0.88891,-1.07107 2.80772,-1.47448 6.33609,-1.33212 2.78358,0.11231 5.58633,0.14837 6.22832,0.0801 0.64199,-0.0682 3.00449,-2.87536 5.25,-6.23803 3.47068,-5.19738 4.07907,-6.88393 4.05829,-11.25 -0.0134,-2.8248 -0.43948,-6.93602 -0.94675,-9.13602 -1.24665,-5.40662 -1.3824,-10.62529 -0.49859,-19.16701 l 0.74156,-7.16701 -5.91067,-2.9837 c -3.25087,-1.64103 -9.50344,-4.36921 -13.8946,-6.06263 -10.0675,-3.88243 -22.96969,-11.78073 -28.84994,-17.66099 -5.92484,-5.92484 -14.41032,-18.07373 -19.1787,-27.45866 -3.46453,-6.81875 -3.84941,-8.37822 -4.2373,-17.16854 -0.35398,-8.0222 -0.0519,-10.83178 1.7739,-16.5 4.19155,-13.01246 12.81511,-24.59826 23.45341,-31.50975 8.9627,-5.8229 16.64013,-7.82171 30.04311,-7.82171 10.85426,0 11.51078,0.12531 18.20651,3.47504 7.92915,3.96679 18.61578,14.2584 22.29514,21.47101 3.39152,6.64837 2.53575,14.93422 -2.78853,26.99966 -11.97654,27.14023 -19.41414,32.85136 -41.523,31.8844 -7.6914,-0.3364 -10.19443,-0.83368 -12.39896,-2.46334 -4.27042,-3.15682 -11.47491,-12.5381 -16.60681,-21.62442 -4.17158,-7.38604 -4.65523,-8.89502 -4.65528,-14.52461 -7e-5,-8.50767 4.5503,-20.39942 9.741,-25.4567 5.93394,-5.78143 12.20127,-8.08407 23.25895,-8.54544 11.23943,-0.46895 15.28725,0.88873 24.10676,8.08567 7.00532,5.71651 8.89324,9.55091 8.89324,18.06235 0,9.22047 -2.89366,16.3274 -9.59498,23.56562 -11.60578,12.53563 -22.06502,13.16406 -34.65468,2.0822 -5.24884,-4.62021 -9.91053,-14.14531 -10.52793,-21.51144 -0.36701,-4.37876 -0.003,-5.62124 2.92925,-10 4.40955,-6.58468 8.37739,-8.49647 17.63818,-8.49845 8.775,-0.002 13.34131,1.99719 18.60271,8.14396 2.8787,3.36311 3.60745,5.04751 3.60745,8.33814 0,5.299 -4.06151,13.48516 -8.71982,17.57521 -3.18054,2.79255 -4.04793,3.075 -7.68275,2.50174 -12.54762,-1.97895 -19.10172,-12.15447 -13.58167,-21.0861 2.04244,-3.30475 7.25735,-6.47759 10.63537,-6.47076 1.01688,0.002 3.31137,0.89544 5.09887,1.9853 2.76773,1.68752 3.25,2.55729 3.25,5.8614 0,7.45706 -7.08451,12.02862 -11.34501,7.32082 -3.4467,-3.80855 -1.26042,-7.4532 2.8538,-4.75746 3.34386,2.19098 4.49121,1.98882 4.49121,-0.79135 0,-5.34062 -7.68634,-6.2965 -11.32,-1.40778 -1.80685,2.43093 -1.88988,3.14145 -0.7944,6.79782 1.45089,4.84265 5.84005,7.97817 11.17584,7.98377 8.25969,0.009 13.81989,-12.5237 9.37224,-21.1245 -1.89702,-3.66843 -8.32351,-6.81908 -13.97179,-6.8498 -4.9502,-0.0269 -12.12194,3.48662 -14.90335,7.30137 -4.54418,6.23243 -1.80335,17.59969 6.25837,25.95588 6.41875,6.65321 13.77033,7.27557 22.25653,1.88414 7.95249,-5.05234 12.80551,-14.26778 12.88267,-24.46301 0.0532,-7.03617 -1.47874,-10.22993 -7.41253,-15.45306 -5.55425,-4.88905 -11.49266,-6.68573 -19.87408,-6.01295 -11.04641,0.8867 -20.41659,6.55481 -24.75713,14.97583 -5.21652,10.12049 -0.10812,26.63831 11.8826,38.42196 6.40793,6.29727 8.89411,7.3606 17.20503,7.35856 14.71375,-0.004 18.80861,-2.73849 28.46995,-19.01463 9.29778,-15.66366 10.5353,-22.12701 6.07211,-31.71348 -2.88708,-6.20114 -10.56754,-14.73122 -15.51744,-17.23402 -11.38637,-5.75723 -27.7121,-5.23515 -41.52462,1.32791 -12.71084,6.03959 -15.38441,9.46178 -20.09541,25.72223 -3.6498,12.5976 -3.94944,26.38062 -0.70638,32.49279 6.54646,12.33807 17.99378,22.11842 36.87246,31.50305 10.09805,5.01976 13.05305,7.00319 16.07248,10.78802 4.29479,5.3835 7.3325,8.08381 9.12919,8.11521 0.69979,0.0122 3.3415,-1.88503 5.87045,-4.21615 8.08661,-7.45397 30.05327,-18.09588 49.10454,-23.78904 l 7.24732,-2.16575 4.38915,2.57221 c 5.25328,3.07863 10.72255,9.41374 17.3565,20.10423 6.74272,10.86576 9.72893,11.44302 5.2597,1.01674 -2.46766,-5.75683 -2.48375,-6.5 -0.14073,-6.5 1.0226,0 3.8351,-1.57063 6.25,-3.49029 3.4989,-2.78136 5.28078,-3.49227 8.7727,-3.5 7.62572,-0.0169 12.74686,4.83871 16.07373,15.24029 0.65967,2.0625 1.52965,3.75 1.93329,3.75 1.13678,0 5.11101,3.95533 5.11101,5.0867 0,0.55484 -1.14791,2.07264 -2.55091,3.3729 l -2.5509,2.3641 7.53885,8.33815 c 10.30216,11.39445 11.56296,14.32326 11.56296,26.8605 0,8.68794 -0.33216,10.69962 -2.46002,14.89875 -2.20631,4.35395 -9.67789,12.0789 -11.68272,12.0789 -0.4305,0 -2.67823,2.8125 -4.99494,6.25 -5.17832,7.68349 -5.95353,8.2342 -7.93311,5.63565 -1.33788,-1.75621 -2.23603,-1.96219 -6.05731,-1.38915 -3.40454,0.51054 -4.78971,0.30746 -5.74377,-0.84211 -1.04038,-1.25359 -0.90112,-1.70551 0.8073,-2.61983 2.77304,-1.48409 2.61313,-3.03456 -0.31299,-3.03456 -1.30765,0 -2.95665,-0.69778 -3.66445,-1.55061 -1.08696,-1.30972 -0.95063,-1.63855 0.87756,-2.11664 2.89877,-0.75804 2.73888,-2.15047 -0.33555,-2.92211 -1.375,-0.3451 -2.5,-1.25367 -2.5,-2.01905 0,-1.97004 6.95481,-1.81197 9.86176,0.22414 2.89696,2.02911 5.27469,0.40367 3.5009,-2.39325 -0.7823,-1.23353 -2.48644,-1.73737 -6.00339,-1.77494 -7.72748,-0.0825 -9.63951,-2.21702 -4.40893,-4.92186 5.96729,-3.0858 11.70022,-0.69112 14.52382,6.06671 1.58554,3.79475 3.8392,4.33684 8.3255,2.00262 6.28188,-3.26846 10.45255,-10.58882 10.58505,-18.57888 0.10244,-6.17783 -3.88364,-16.33221 -10.11697,-25.77255 -4.14707,-6.28073 -6.57561,-7.14749 -12.11218,-4.32294 -5.5275,2.81992 -8.4636,2.62204 -14.78845,-0.99667 -6.7152,-3.84205 -7.97725,-3.50458 -21.86101,5.84555 -11.59047,7.8057 -14.96077,11.9543 -13.99377,17.22534 0.92823,5.05974 9.25805,29.00575 11.03131,31.71208 1.74414,2.6619 4.71867,2.91706 9.70722,0.83271 1.92231,-0.80319 3.77727,-1.17819 4.12212,-0.83333 1.23046,1.23046 0.58961,2.3574 -1.87298,3.29368 -1.375,0.52277 -2.5,1.42576 -2.5,2.00663 0,2.19531 3.45486,2.27608 7.1204,0.16647 4.6521,-2.67742 5.8796,-2.72707 5.8796,-0.23783 0,1.30401 -1.14167,2.34811 -3.5,3.20089 -4.16464,1.50595 -4.4146,2.56561 -0.91872,3.89474 4.50972,1.71459 2.24939,3.44738 -4.91098,3.76479 -5.85078,0.25936 -6.6703,0.5358 -6.6703,2.25 0,3.10619 -2.88022,2.30938 -7.17439,-1.98478 z"
       style="fill:#6f6f6f" />
    <path
       inkscape:connector-curvature="0"
       id="path5018"
       d="m 401.5752,532.4402 c -3.80923,-3.44141 -4.21804,-4.26257 -4.21804,-8.47259 0,-3.30774 -1.04828,-6.83216 -3.60896,-12.13364 -6.19076,-12.81702 -10.39104,-24.63555 -10.39104,-29.23775 0,-5.79591 4.12412,-13.87227 9.09358,-17.80815 2.16501,-1.71473 7.79928,-4.82916 12.52059,-6.92097 10.04482,-4.45043 10.83437,-5.09337 10.04737,-8.1817 -0.94293,-3.70027 -12.85727,-18.03537 -17.72238,-21.32322 -3.75254,-2.53598 -5.39144,-2.99725 -10.59589,-2.98223 -5.44086,0.0157 -7.38198,0.63889 -16.69415,5.35954 -5.79557,2.93798 -11.31634,6.20248 -12.26836,7.25445 -1.91658,2.1178 -1.95251,1.96556 6.24332,26.45602 6.35552,18.99132 4.52457,28.23547 -8.97735,45.32511 -3.6557,4.62709 -6.64673,8.86665 -6.64673,9.42126 0,0.5546 0.6709,1.74971 1.49089,2.65579 1.34111,1.4819 1.17569,1.88045 -1.64641,3.96692 l -3.1373,2.31951 -6.60359,-3.58754 c -5.185,-2.81686 -6.60359,-4.08177 -6.60359,-5.88818 0,-1.82868 0.61544,-2.3569 3,-2.57486 6.60606,-0.6038 7.33735,-1.18534 13.80535,-10.97818 11.02854,-16.69771 10.96364,-16.41658 7.70758,-33.38955 -2.97096,-15.48681 -3.80771,-19.98324 -4.47584,-24.0517 -0.38958,-2.3723 -1.27197,-3.90483 -2.46663,-4.284 -2.35256,-0.74667 -10.04622,2.14099 -12.21428,4.58439 -2.71551,3.06036 -4.36336,17.90553 -2.86753,25.83311 0.68435,3.62691 1.07744,10.26799 0.87354,14.75795 -0.35101,7.72953 -0.59646,8.48368 -4.61646,14.18403 -4.6951,6.65764 -4.90089,7.32953 -2.78328,9.087 1.26769,1.05209 1.18429,1.58995 -0.62624,4.03882 -3.12467,4.22635 -5.08315,4.23175 -10.17024,0.028 -2.48263,-2.05153 -5.89809,-4.30341 -7.58992,-5.00419 -3.51804,-1.45722 -4.12987,-4.56225 -1.08913,-5.52735 1.0928,-0.34684 3.97234,-0.33289 6.39897,0.031 4.37593,0.65621 4.44495,0.62 8.43082,-4.42249 6.07013,-7.6793 6.65111,-10.35037 4.76056,-21.88688 -0.8766,-5.34915 -1.47759,-13.76385 -1.33554,-18.69931 l 0.25827,-8.97356 -5,-2.7614 c -2.75,-1.51876 -8.70957,-4.17679 -13.24349,-5.90673 -10.04963,-3.83448 -21.12917,-10.22569 -27.53338,-15.88258 -2.62728,-2.3207 -7.68765,-8.39436 -11.24526,-13.49702 -14.38418,-20.63118 -17.33194,-32.63461 -12.02254,-48.9564 6.2329,-19.16074 20.51758,-33.2643 38.55223,-38.06344 3.02084,-0.80386 9.81948,-1.46691 15.10808,-1.47344 9.06832,-0.0112 10.02895,0.1949 16.87667,3.62067 13.39188,6.69969 25.05411,21.08865 24.97452,30.8138 -0.0756,9.2331 -12.80139,35.59735 -20.41927,42.30288 -5.80624,5.11085 -10.03332,6.25078 -23.17918,6.25078 -13.65204,0 -15.40482,-0.86111 -23.40818,-11.5 -8.31522,-11.05344 -12.96583,-20.53658 -12.93911,-26.38436 0.0248,-5.43636 3.80311,-16.74049 7.42418,-22.21231 6.9128,-10.44593 28.20368,-15.12442 40.88696,-8.98455 5.97645,2.89315 13.97694,10.10562 16.04574,14.4653 4.98283,10.50054 -1.95313,29.44383 -13.7288,37.49565 -9.50905,6.50199 -14.86272,6.49657 -24.62875,-0.0249 -9.74556,-6.50783 -16.58736,-20.68146 -14.05816,-29.12318 1.80722,-6.03194 7.66122,-11.74845 13.03788,-12.73164 5.38602,-0.98491 14.57336,-0.19024 18.05173,1.5614 4.13007,2.07982 10.94813,10.1002 10.94813,12.87876 0,8.43632 -8.4367,20.56449 -14.29814,20.55428 -5.69276,-0.01 -10.4534,-1.94741 -13.60515,-5.53705 -3.82142,-4.35236 -4.61352,-7.36141 -3.12504,-11.87154 2.68953,-8.14935 13.42721,-11.70808 17.95575,-5.95097 2.45682,3.12334 2.60159,5.44147 0.58355,9.34393 -2.4353,4.70935 -7.6613,5.21265 -10.29732,0.99171 -2.18302,-3.49558 1.13752,-5.66214 3.78635,-2.4705 3.00082,3.61577 6.14464,-0.10411 3.49963,-4.1409 -1.18907,-1.81475 -2.45031,-2.3591 -5.46598,-2.3591 -9.44204,0 -9.43845,12.63659 0.005,17.51998 3.95269,2.04402 7.21875,1.852 10.34649,-0.60828 3.89297,-3.06222 5.61486,-7.11854 5.61486,-13.22718 0,-8.97323 -5.33294,-13.68452 -15.49018,-13.68452 -18.83356,0 -23.68001,17.64087 -8.99737,32.75 5.85218,6.02217 6.25428,6.2492 11.03057,6.22804 13.36673,-0.0592 24.8161,-12.99024 24.91395,-28.13806 0.0377,-5.83334 -0.32935,-7.18353 -2.95697,-10.87762 -9.89978,-13.91776 -30.06573,-15.45454 -44.41032,-3.38437 -5.53324,4.65592 -7.33315,9.53996 -6.93617,18.8213 0.43529,10.17679 3.40015,16.64171 11.87218,25.88744 7.62129,8.3173 12.11274,10.24325 21.96225,9.4175 12.87152,-1.0791 16.87703,-4.11239 26.01977,-19.70423 7.32131,-12.4856 7.99229,-14.31247 7.99229,-21.76052 0,-6.0826 -0.40264,-7.52822 -3.56461,-12.79831 -4.81062,-8.0179 -8.85373,-12.00917 -15.4229,-15.22515 -4.7078,-2.30474 -7.06968,-2.75217 -16.1799,-3.06515 -11.48289,-0.39448 -16.40293,0.65731 -26.33259,5.62928 -10.82289,5.41924 -14.42558,10.20697 -18.60126,24.71985 -1.7568,6.10588 -2.31326,10.61174 -2.35026,19.03091 -0.0478,10.87379 10e-4,11.11343 3.45152,16.82389 7.30832,12.09626 19.1945,21.67428 37.36099,30.10593 7.92612,3.67876 10.09204,5.24791 15.06988,10.91775 7.00299,7.97651 8.80481,8.289 14.97903,2.59781 4.75789,-4.38567 9.29767,-7.17112 20.19265,-12.38949 15.91974,-7.62509 32.69786,-13.23019 36.64064,-12.24061 4.42275,1.11004 11.80727,8.81098 18.98618,19.79972 3.90003,5.96975 7.483,10.85409 7.96218,10.85409 1.96451,0 1.74374,-2.94107 -0.60059,-8.00108 -2.57479,-5.55742 -2.55952,-6.99892 0.0741,-6.99892 0.8509,0 3.25447,-1.35228 5.34128,-3.00506 9.38034,-7.42936 19.29867,-3.62472 23.49628,9.0131 1.05284,3.16981 2.77345,5.87556 4.59068,7.21909 3.40593,2.51812 3.6852,4.75832 0.90665,7.27287 -1.1,0.99549 -2,2.10741 -2,2.47093 0,0.36353 2.49305,3.33129 5.54011,6.59502 11.36368,12.17172 13.46478,16.67588 13.45012,28.83327 -0.0132,10.96474 -2.50145,16.24663 -11.28737,23.96023 -3.62137,3.17939 -8.00789,7.99917 -9.74783,10.71063 -1.73994,2.71146 -3.51172,4.92992 -3.9373,4.92992 -0.42558,0 -1.40373,-0.94875 -2.17366,-2.10833 -1.20831,-1.8198 -1.87503,-1.98317 -4.87197,-1.19377 -5.90916,1.55648 -9.39117,-0.33289 -4.9721,-2.6979 2.96134,-1.58486 2.43882,-2.82705 -1.5,-3.56598 -3.94028,-0.7392 -4.5429,-1.92803 -1.39464,-2.75132 2.61999,-0.68514 2.00809,-2.94771 -0.98852,-3.65512 -1.22918,-0.29017 -2.32082,-0.97758 -2.42586,-1.52758 -0.32221,-1.68715 4.14322,-1.7292 7.46852,-0.0703 4.66045,2.32494 6.02737,2.03989 5.65692,-1.17968 -0.29778,-2.58804 -0.6652,-2.77945 -6.23857,-3.25 -7.01928,-0.59263 -8.15914,-2.27829 -3.15441,-4.66488 3.35354,-1.59919 3.79593,-1.60094 7.09453,-0.0279 1.99759,0.95258 3.98855,2.86937 4.60682,4.43521 2.04003,5.16654 2.61803,5.76052 5.40151,5.55079 4.20908,-0.31716 10.19751,-4.83148 12.56488,-9.4719 1.17188,-2.29707 2.36035,-6.70926 2.64105,-9.80486 0.45062,-4.96954 0.0572,-6.65219 -3.36094,-14.3751 -4.90627,-11.08517 -10.0203,-18.03378 -13.5791,-18.45041 -1.45212,-0.17 -4.45648,0.6175 -6.67636,1.75 -5.3415,2.72503 -6.85441,2.61074 -12.45478,-0.94091 -7.29584,-4.62688 -8.86068,-4.25889 -23.81228,5.59971 -10.45087,6.89098 -13.84208,10.78697 -13.84018,15.90029 10e-4,2.83761 8.49997,28.8447 10.87874,33.28947 1.5846,2.96086 4.40635,3.53249 8.66139,1.75462 2.03254,-0.84925 4.34213,-1.54409 5.13242,-1.54409 2.06584,0 0.56003,1.95781 -2.35956,3.06784 -1.36628,0.51945 -2.30036,1.5042 -2.07574,2.18831 0.69309,2.11093 5.61493,1.99302 9.19617,-0.22031 2.14736,-1.32714 3.63471,-1.72072 4.03783,-1.06846 0.98587,1.59518 -0.18708,2.7809 -3.99377,4.03722 -4.14175,1.3669 -4.43754,2.68315 -0.90479,4.0263 4.56023,1.7338 2.2456,3.4691 -4.62726,3.4691 -5.91225,0 -6.39322,0.16952 -6.93538,2.44439 l -0.58255,2.44438 -4.21805,-3.81075 z"
       style="fill:#4e4e4e" />
    <path
       inkscape:connector-curvature="0"
       id="path5016"
       d="m 400.8576,531.29596 c -3.07849,-3.0785 -3.48205,-4.0149 -2.95076,-6.84693 0.49284,-2.62703 -0.4247,-5.55272 -4.60506,-14.68377 -10.86112,-23.72372 -11.69697,-29.17151 -5.88246,-38.34004 3.62922,-5.72269 9.11571,-9.66963 19.13686,-13.76692 4.38924,-1.7946 8.41874,-4.0819 8.95445,-5.08289 1.3258,-2.47727 -2.50414,-8.87692 -10.29986,-17.21056 -8.91558,-9.53079 -11.50311,-10.86803 -19.87089,-10.26932 -5.65096,0.40432 -8.50942,1.32924 -16.17342,5.23328 -15.7043,7.99977 -15.36907,6.43114 -6.63211,31.03337 2.5615,7.21288 3.27215,10.96343 3.57886,18.88792 0.36279,9.37343 0.2253,10.20595 -2.64233,16 -1.66377,3.36165 -5.74499,9.43737 -9.06938,13.5016 -5.81373,7.1076 -7.18511,10.56971 -5.03747,12.71735 0.67582,0.67582 0.0817,1.69087 -1.80702,3.08725 l -2.81388,2.08039 -6.24664,-3.50858 c -4.97112,-2.79217 -6.18463,-3.94325 -5.94298,-5.63726 0.24655,-1.72837 1.09898,-2.18631 4.53299,-2.43516 4.98061,-0.36093 7.79504,-3.37114 16.07524,-17.19351 6.08093,-10.15108 6.78887,-13.42183 4.77331,-22.05316 -0.84165,-3.60424 -2.02732,-9.67924 -2.63482,-13.5 -0.60751,-3.82076 -1.48259,-9.3328 -1.94463,-12.24897 -0.46204,-2.91617 -1.38081,-5.95367 -2.0417,-6.75 -2.97799,-3.58825 -14.62332,0.7248 -16.34089,6.05213 -0.53197,1.65 -1.00066,12.91156 -1.04154,25.0257 l -0.0743,22.0257 -3.75,5.22661 c -3.71537,5.17835 -4.66954,8.53565 -2.76112,9.71512 1.35682,0.83856 -1.65187,5.26513 -4.10863,6.04488 -1.32916,0.42186 -3.04309,-0.35181 -5.43834,-2.45487 -1.92364,-1.68897 -5.31445,-3.99779 -7.53515,-5.13071 -5.63941,-2.87701 -4.56862,-4.44044 3.08826,-4.50905 5.94014,-0.0532 6.49355,-0.26292 9.23681,-3.5 6.92202,-8.16805 7.87126,-12.96283 5.37249,-27.13719 -0.88364,-5.01252 -1.06621,-9.19451 -0.52387,-12 1.56376,-8.08919 1.15379,-11.47677 -1.65644,-13.6873 -1.41679,-1.11445 -7.92414,-4.11783 -14.46077,-6.67418 -13.74973,-5.37725 -24.43632,-11.61685 -31.28241,-18.26493 -6.06208,-5.88674 -14.34137,-17.5984 -19.26505,-27.25185 -3.42867,-6.72228 -3.82821,-8.33042 -4.20573,-16.92793 -0.49481,-11.2686 0.93686,-17.12937 6.71771,-27.5 5.1461,-9.23189 9.7899,-14.47821 17.18888,-19.41905 8.98032,-5.99683 16.78042,-8.08111 30.23869,-8.08016 10.31566,7.3e-4 11.61819,0.2248 17.51038,3.01226 7.34405,3.4743 18.61308,14.08225 21.98693,20.69711 2.38237,4.67093 2.78162,11.40143 1.05529,17.78984 -1.8222,6.74318 -13.0126,28.30097 -16.61746,32.01278 -6.00648,6.18468 -10.47171,7.84095 -22.29047,8.26816 -14.22358,0.51413 -16.98101,-0.50863 -23.67406,-8.78094 -2.8925,-3.575 -7.29911,-10.1 -9.79246,-14.5 -4.04777,-7.14305 -4.53338,-8.67294 -4.53343,-14.28226 -4e-5,-4.58279 0.81023,-8.38338 2.99522,-14.04924 5.15157,-13.35848 12.68352,-18.27797 29.00473,-18.94446 11.04018,-0.45083 13.57794,0.35252 22.64518,7.16849 7.86438,5.91175 9.71568,9.89192 9.19683,19.77257 -0.6246,11.89441 -7.79718,23.2448 -17.93542,28.38223 -8.24231,4.1767 -15.60641,2.68128 -24.5672,-4.98882 -4.83706,-4.14034 -9.52981,-13.93149 -10.09302,-21.05851 -0.33696,-4.26392 0.0595,-5.70766 2.69331,-9.8069 3.82988,-5.96088 7.67521,-7.6931 17.07786,-7.6931 8.2643,0 10.7887,1.09924 16.86691,7.34464 4.23354,4.34999 4.36768,4.67955 3.89732,9.57471 -0.54674,5.68999 -4.65408,13.17988 -8.99455,16.40185 -2.48542,1.84495 -3.17142,1.91108 -8.18536,0.78901 -4.33233,-0.96953 -6.23933,-2.07341 -9.15256,-5.29801 -3.34697,-3.7047 -3.63463,-4.47556 -3.17891,-8.51875 0.60412,-5.35969 4.55865,-9.98315 9.29947,-10.87253 3.17977,-0.59653 7.20047,0.7857 8.66483,2.97878 1.26731,1.89798 0.83163,7.0606 -0.79139,9.37779 -2.71946,3.88257 -9.4433,2.47455 -9.4433,-1.97749 0,-2.20978 1.32403,-2.31942 3.04005,-0.25174 1.87772,2.26251 5.39302,1.42427 5.79031,-1.38073 1.12582,-7.94875 -12.5646,-8.20699 -14.30788,-0.26988 -2.10652,9.59094 11.11321,18.10976 18.76406,12.0916 5.54115,-4.35868 7.20881,-15.53192 3.22555,-21.61114 -2.14892,-3.27966 -8.89499,-6.32813 -14.06575,-6.35615 -6.44347,-0.0349 -13.9022,4.22255 -16.38584,9.35306 -1.13328,2.34104 -2.0605,5.38419 -2.0605,6.76257 0,4.86577 3.23829,11.91114 7.81394,17.00036 7.37808,8.2062 12.89536,9.60775 21.69334,5.51074 9.46131,-4.40591 15.52821,-13.85081 16.27871,-25.34258 0.42106,-6.44731 0.19467,-7.6634 -2.18154,-11.7181 -4.4988,-7.67661 -13.50074,-12.58801 -23.07217,-12.58801 -11.48302,0 -22.97396,6.01982 -27.82305,14.57582 -2.51984,4.44616 -2.75468,5.67024 -2.41911,12.6095 0.4457,9.21674 4.03073,17.36436 11.25167,25.57144 7.02459,7.9839 11.56125,10.24442 20.54607,10.23766 14.62041,-0.011 19.2867,-3.17353 29.32281,-19.87326 9.67361,-16.09654 10.74524,-22.48736 5.52308,-32.93783 -5.52969,-11.06588 -13.74848,-17.73188 -24.73297,-20.06012 -14.83326,-3.14402 -33.21687,1.57246 -43.96014,11.27835 -6.98589,6.31133 -12.08875,22.22691 -12.36313,38.55999 -0.15074,8.97385 0.0603,10.15362 2.67698,14.96123 3.97577,7.3048 13.3215,17.17639 21.25401,22.44991 3.69338,2.45536 11.49461,6.75265 17.33606,9.54955 9.32866,4.46658 11.12293,5.75031 14.74791,10.55156 6.66983,8.83413 9.12826,9.22537 16.5031,2.6264 5.20731,-4.65947 14.01064,-9.90065 23.60443,-14.05321 4.125,-1.78545 9.075,-3.93964 11,-4.78709 1.925,-0.84744 7.325,-2.5506 12,-3.78481 7.24429,-1.91251 8.87134,-2.05375 11.01363,-0.95611 4.12289,2.11246 12.19692,11.39865 18.02348,20.72937 3.48428,5.57977 6.09672,8.74894 7.21289,8.75 2.3241,0.002 2.23736,-2.69558 -0.27513,-8.55698 -1.11382,-2.59844 -1.90132,-4.79463 -1.75,-4.88042 0.15132,-0.0858 1.40013,-0.70674 2.77513,-1.37988 1.375,-0.67314 4.02905,-2.33925 5.89788,-3.70248 7.91097,-5.77067 17.02259,-1.74048 21.09757,9.33174 1.28022,3.47851 3.33966,6.73156 5.29928,8.37064 l 3.20527,2.68096 -2.87586,3.00512 -2.87586,3.00512 7.37586,8.1211 c 10.71522,11.79785 11.7757,14.22265 11.83067,27.05097 0.0435,10.1541 -0.0751,10.7449 -3.20481,15.96762 -1.89521,3.1626 -5.07485,6.64653 -7.6276,8.35756 -2.40769,1.6138 -5.78269,4.94352 -7.5,7.39938 -5.78063,8.26664 -5.43233,7.97654 -7.05776,5.87847 -1.20823,-1.55955 -2.23678,-1.7425 -6.5,-1.15616 -5.46149,0.75115 -6.55054,-0.26056 -2.89395,-2.68845 2.6084,-1.73191 1.69863,-3.80266 -1.67069,-3.80266 -3.10914,0 -4.07315,-1.61685 -1.3834,-2.32024 2.49336,-0.65203 2.02088,-3.03435 -0.69947,-3.52682 -1.05442,-0.19089 -2.34463,-0.75339 -2.86713,-1.25 -1.69351,-1.60961 5.40153,-0.9808 7.97746,0.70701 2.89254,1.89526 5.47254,1.22412 5.47254,-1.42358 0,-3.17024 -3.32971,-5.30694 -7.85401,-5.03999 -4.89757,0.28898 -6.35805,-0.78693 -3.70329,-2.72814 4.5726,-3.34357 10.99449,-0.54659 13.09799,5.70467 1.77975,5.28915 6.77051,5.17678 12.99988,-0.29268 5.03796,-4.42339 7.73478,-10.20783 7.84585,-16.82866 0.0729,-4.34275 -0.70084,-7.26199 -3.67312,-13.85926 -4.60543,-10.2222 -9.09085,-16.90158 -12.34592,-18.38469 -2.0036,-0.9129 -3.26654,-0.71931 -6.93529,1.06311 -6.07477,2.95135 -9.23385,2.74583 -14.83652,-0.96522 -4.26183,-2.82292 -5.09617,-3.03743 -8.1585,-2.09758 -3.99464,1.22599 -19.71025,11.0033 -23.67794,14.73099 -4.83019,4.53803 -6.07458,8.02768 -4.7828,13.41243 2.00209,8.34562 9.59892,29.12169 11.4307,31.26106 1.40022,1.63533 2.57318,1.96945 5.52433,1.57362 3.51141,-0.47098 3.71803,-0.35278 3.29076,1.88234 -0.38591,2.01877 0.031,2.48225 2.71581,3.01922 2.22249,0.44449 3.00515,1.06836 2.61518,2.08459 -0.36768,0.95818 0.46199,1.83471 2.44519,2.58328 4.81258,1.81654 3.50976,2.69454 -3.9983,2.69454 -6.33333,0 -7,0.19048 -7,2 0,2.89167 -1.45645,2.47689 -5.49956,-1.56622 z m 17.36034,-9.46705 c 2.56745,-2.13889 4.13922,-2.51935 4.13922,-1.00191 0,1.13792 -3.30131,3.04952 -5.18426,3.00191 -0.75254,-0.019 -0.30522,-0.87512 1.04504,-2 z"
       style="fill:#2d2d2d" />
    <path
       inkscape:connector-curvature="0"
       id="path5014"
       d="m 400.42525,529.95781 c -1.2672,-1.77963 -2.06809,-4.46311 -2.06809,-6.92943 0,-2.64123 -1.48571,-7.22952 -4.32138,-13.34563 -8.0931,-17.45563 -9.9913,-23.40585 -9.24984,-28.99524 1.31665,-9.92538 7.32965,-15.94406 22.66656,-22.68799 7.60913,-3.34588 8.43262,-3.9777 8.70001,-6.67512 0.3318,-3.347 -4.38725,-10.41051 -12.5703,-18.81532 -8.0206,-8.23797 -13.75565,-10.05291 -23.78568,-7.52732 -3.43061,0.86384 -4.78812,0.83587 -5.94282,-0.12244 -2.31615,-1.92223 -1.81336,-2.96682 2.24397,-4.66208 2.96878,-1.24044 4.37608,-1.33307 6.821,-0.44898 4.71652,1.70552 7.55163,1.39723 8.14873,-0.88608 0.28766,-1.1 1.23867,-2 2.11337,-2 2.66201,0 13.42467,11.97693 19.09557,21.25 3.6953,6.04256 5.93777,8.75 7.2473,8.75 2.98034,0 3.30244,-2.75656 0.97753,-8.36582 -2.60533,-6.28583 -2.62205,-6.63418 -0.31833,-6.63418 1.00412,0 2.8703,-1.11194 4.14705,-2.47098 3.36857,-3.58569 8.20435,-4.95571 12.49453,-3.53982 4.32667,1.42793 7.6115,5.25939 9.9499,11.60565 0.99407,2.69783 3.21726,6.10865 4.94041,7.57959 l 3.13302,2.67444 -2.2453,2.39001 c -1.23492,1.31451 -2.2453,2.93639 -2.2453,3.60418 0,0.66779 3.55439,5.24159 7.89865,10.16398 8.98982,10.18619 11.09877,14.91841 11.1063,24.92109 0.009,11.44918 -3.6959,18.3361 -13.98155,25.99256 -1.78857,1.33138 -4.58912,4.59388 -6.22345,7.25 -3.1599,5.13549 -4.21612,5.79313 -5.19735,3.23607 -0.49474,-1.28927 -1.61216,-1.47988 -5.85699,-0.99906 -4.35745,0.49358 -4.86465,0.39883 -2.99561,-0.55958 2.80766,-1.43972 3.02491,-4.84813 0.30902,-4.84813 -1.06754,0 -2.2191,-0.45 -2.55902,-1 -0.33992,-0.55 -0.14148,-1 0.44098,-1 0.58246,0 1.05902,-0.87171 1.05902,-1.93713 0,-1.64147 0.51479,-1.85359 3.37287,-1.38979 2.03938,0.33095 3.65601,0.0892 4.08903,-0.61143 0.54262,-0.87798 1.0554,-0.87722 2.11617,0.003 4.46556,3.70609 17.14302,-5.46444 19.43249,-14.05694 1.89627,-7.11678 0.8263,-13.79382 -3.70961,-23.14936 -2.22887,-4.59717 -5.46122,-10.27099 -7.18299,-12.60849 -2.65728,-3.60754 -3.66466,-4.25 -6.66407,-4.25 -1.94346,0 -5.34123,0.9222 -7.5506,2.04934 -4.46879,2.27981 -6.43773,1.99975 -11.88542,-1.69053 -5.89498,-3.99328 -9.6644,-3.06797 -23.23634,5.704 -7.85363,5.07604 -12.2992,9.10378 -14.28352,12.94104 -1.39217,2.69215 -1.39672,3.59125 -0.0443,8.74834 2.78717,10.62838 10.4372,30.69484 12.19078,31.97709 0.95579,0.6989 3.0018,1.27072 4.54668,1.27072 1.87195,0 2.80887,0.51769 2.80887,1.55202 0,0.85361 1.30492,2.00692 2.89982,2.5629 1.5949,0.55599 3.12777,1.88258 3.40638,2.94798 0.27861,1.06541 1.33619,1.94399 2.35018,1.95241 1.55638,0.0129 1.60991,0.16644 0.34362,0.98527 -0.825,0.53348 -3.62977,0.69464 -6.23282,0.35814 -3.82231,-0.49412 -4.8529,-0.2989 -5.35699,1.01473 -0.9438,2.4595 -3.0375,1.95869 -5.3421,-1.27782 z m -61.95816,-6.76821 c -3.41976,-1.9272 -6.04601,-4.02676 -5.83611,-4.66571 0.20989,-0.63894 2.23418,-1.29886 4.49841,-1.4665 5.0127,-0.37111 7.43585,-2.88145 15.76243,-16.32953 6.8513,-11.06538 7.51352,-14.66793 5.01283,-27.27015 -1.93016,-9.72701 -1.78886,-12.43184 0.73098,-13.9934 2.42289,-1.50149 3.9454,0.85878 3.32066,5.14787 -0.26122,1.7934 -0.0305,3.25 0.51477,3.25 2.18225,0 3.84864,6.88722 3.55061,14.67478 -0.37323,9.75269 -2.59837,14.66591 -11.88267,26.23752 -6.54828,8.16155 -7.94921,11.52033 -5.73049,13.73905 0.73513,0.73513 0.33324,1.52186 -1.33617,2.6157 -2.25568,1.47798 -2.73085,1.37087 -8.60525,-1.93963 z m -19.70372,-7.43106 c -1.04708,-1.15701 -3.92932,-3.26209 -6.40499,-4.67797 -5.82639,-3.33221 -5.68214,-3.17804 -3.97226,-4.24542 0.80907,-0.50505 3.79242,-0.64846 6.62966,-0.31868 l 5.15862,0.59959 4.55826,-6.19197 c 2.50705,-3.40558 4.85101,-7.75239 5.2088,-9.65958 0.35779,-1.90718 -0.10675,-8.08448 -1.03232,-13.72733 -1.40229,-8.54931 -1.48767,-11.38045 -0.51216,-16.98226 1.56069,-8.96214 0.61852,-10.29448 -10.70275,-15.13489 -29.57434,-12.64451 -37.13638,-18.14939 -48.82876,-35.54549 -14.58187,-21.69513 -15.97935,-33.94083 -6.16282,-54.00296 9.69234,-19.80831 27.95682,-30.68091 50.14036,-29.84789 11.17677,0.4197 17.24374,3.1068 26.81375,11.87597 6.92464,6.34518 12.7004,15.87583 12.7004,20.95709 0,7.41553 -12.43819,34.37695 -18.7891,40.72787 -5.85537,5.85536 -10.16145,7.23076 -22.7109,7.25404 -8.50196,0.0158 -11.79483,-0.37665 -14.5,-1.72803 -6.85276,-3.42334 -22,-27.30279 -22,-34.68274 0,-7.0181 5.64188,-21.05225 10.15396,-25.25793 7.12834,-6.64428 23.20116,-10.01129 32.71131,-6.85253 6.30552,2.09436 15.92789,9.17596 18.6215,13.70454 3.07748,5.17396 2.78146,15.70144 -0.64718,23.01536 -3.45816,7.3769 -9.71916,14.08762 -16.119,17.27679 -5.807,2.89375 -7.96374,3.06976 -12.22059,0.99728 l -3,-1.46057 2.84582,0.54878 c 1.56521,0.30182 5.20443,-0.13689 8.08717,-0.97493 10.5893,-3.07839 19.19291,-14.34535 20.30305,-26.58808 0.66793,-7.36613 -0.88658,-11.85794 -5.88692,-17.01046 -7.37998,-7.60456 -17.92593,-10.33484 -29.00764,-7.50991 -8.3256,2.12234 -16.01637,7.28186 -19.36072,12.98856 -2.2927,3.91221 -2.63081,5.58339 -2.5854,12.77909 0.0469,7.43736 0.41907,9.02101 3.66337,15.58962 4.09719,8.29543 13.26556,18.38166 18.81757,20.70144 4.57288,1.91067 14.85131,1.90578 21.3029,-0.0101 6.64074,-1.97209 12.22258,-7.9687 19.54991,-21.00263 9.61348,-17.10054 9.91592,-23.42568 1.72043,-35.97992 -8.34973,-12.7905 -15.93714,-16.52008 -33.60821,-16.52008 -8.48865,0 -11.43828,0.43008 -16.80581,2.45041 -11.52814,4.33918 -18.97505,9.63129 -22.12532,15.72325 -5.01151,9.69119 -8.81442,32.52765 -7.01451,42.12203 0.77604,4.13664 6.038,12.29001 11.97795,18.55977 6.49552,6.85615 13.7498,11.79304 26.36824,17.94484 8.03793,3.91869 12.79523,6.92336 15.22461,9.61572 8.10981,8.98772 8.85149,9.58398 11.9214,9.58398 4.64488,0 5.40191,2.38199 4.03103,12.68357 -0.63511,4.77257 -0.83743,10.95869 -0.4496,13.74692 1.40929,10.13185 1.62475,20.75445 0.49065,24.1908 -0.62928,1.90674 -2.71906,5.53006 -4.64397,8.05181 -2.5582,3.35144 -3.36762,5.27655 -3.00846,7.15534 1.18095,6.17775 -3.07115,9.30023 -6.90133,5.06792 z m 119.70472,-9.97897 c -1.31399,-0.52571 -3.90149,-0.6721 -5.75,-0.32532 -3.43898,0.64515 -4.7683,-0.83803 -1.77914,-1.98508 2.94531,-1.13022 6.18684,-0.61515 8.55743,1.35974 2.62929,2.19042 2.4605,2.34648 -1.02829,0.95066 z m -83.45294,-49.59273 c -1.28248,-1.28248 -0.68434,-8.10057 0.75925,-8.65453 1.56851,-0.60189 2.58276,1.27883 2.58276,4.78921 0,2.41718 -2.22118,4.98615 -3.34201,3.86532 z m -7.79143,-14.05504 -3.63344,-0.37645 1.88146,-3.89419 c 1.99224,-4.12347 7.50054,-8.99898 10.16694,-8.99898 1.27296,0 1.48079,0.75289 1.03512,3.75 -0.61431,4.13123 -3.27497,9.5028 -4.82581,9.74275 -0.54495,0.0843 -2.62588,-0.0161 -4.62427,-0.22313 z m 15.80011,-10.93629 c -1.20027,-1.20026 -0.69914,-5.0615 0.8206,-6.32276 1.92942,-1.60128 4.09054,-0.73303 4.78495,1.92239 0.84071,3.21489 -3.43477,6.57116 -5.60555,4.40037 z m -68.72905,-46.27824 c -4.09493,-4.30467 -8.08686,-13.51029 -8.27369,-19.07962 -0.1487,-4.43251 4.39973,-12.45392 8.12496,-14.32883 3.31842,-1.67016 10.21111,-2.82361 10.21111,-1.70877 0,0.44667 -1.41088,1.09431 -3.1353,1.43919 -1.72441,0.34488 -4.6015,1.53323 -6.39354,2.64076 -9.10627,5.62799 -8.46446,21.20922 1.2865,31.23218 2.00653,2.0625 3.26223,3.75 2.79045,3.75 -0.47178,0 -2.5465,-1.77521 -4.61049,-3.94491 z m 15.14571,-2.41355 c 0.22917,-0.19715 2.21667,-0.6344 4.41667,-0.97166 2.72397,-0.41758 3.52149,-0.30812 2.5,0.34315 -1.36629,0.87109 -7.88744,1.46367 -6.91667,0.62851 z m -7.21089,-3.39154 c -1.26951,-1.61876 -1.22245,-1.63998 0.62756,-0.28297 1.1,0.80687 2.1875,1.59437 2.41667,1.75 0.22916,0.15563 -0.0532,0.28297 -0.62756,0.28297 -0.57432,0 -1.66182,-0.7875 -2.41667,-1.75 z m -3.81823,-3.68468 c -0.65487,-0.78907 -1.04747,-2.90652 -0.87244,-4.70544 0.30434,-3.12802 0.36478,-3.06541 1.38492,1.43467 1.18493,5.22705 1.1732,5.30189 -0.51248,3.27077 z m 8.69579,-3.64542 c -0.9625,-0.5606 -1.75,-1.74166 -1.75,-2.62458 0,-1.45561 0.17052,-1.45098 1.82874,0.0497 1.00581,0.91025 2.60737,1.65499 3.55902,1.65499 0.95165,0 1.45216,0.45 1.11224,1 -0.77875,1.26005 -2.49891,1.23104 -4.75,-0.0801 z m 16.54044,-2.78797 c 0.21881,-1.85243 0.0751,-5.13298 -0.31936,-7.29011 -0.70389,-3.84927 -0.68078,-3.88907 1.24586,-2.14549 1.5722,1.42282 1.83834,2.55653 1.33664,5.69398 -0.8328,5.208 -2.8255,8.50251 -2.26314,3.74162 z m -11.04891,-6.09828 c -0.69217,-1.11851 -2.26717,-2.04054 -3.5,-2.04896 -1.23284,-0.008 -2.91653,-0.45153 -3.74153,-0.98469 -1.12327,-0.72591 -0.62097,-0.96523 2,-0.95288 4.07979,0.0192 7.32098,2.11007 6.83787,4.41102 -0.28266,1.34623 -0.5435,1.27687 -1.59634,-0.42449 z m -0.24153,-12.03365 c -2.32726,-0.74532 -2.34861,-0.80753 -0.30902,-0.90032 1.20504,-0.0548 2.4691,0.35032 2.80902,0.90032 0.33992,0.55 0.47898,0.95514 0.30902,0.90032 -0.16996,-0.0548 -1.43402,-0.45997 -2.80902,-0.90032 z"
       style="fill:#0a0a0a" />
  </g>
</svg>
