<?xml version="1.0" encoding="UTF-8" standalone="no"?>
<!-- Generator: IcoMoon.io -->

<svg
   xmlns:dc="http://purl.org/dc/elements/1.1/"
   xmlns:cc="http://creativecommons.org/ns#"
   xmlns:rdf="http://www.w3.org/1999/02/22-rdf-syntax-ns#"
   xmlns:svg="http://www.w3.org/2000/svg"
   xmlns="http://www.w3.org/2000/svg"
   xmlns:sodipodi="http://sodipodi.sourceforge.net/DTD/sodipodi-0.dtd"
   xmlns:inkscape="http://www.inkscape.org/namespaces/inkscape"
   version="1.1"
   id="Layer_1"
   x="0px"
   y="0px"
   width="48px"
   height="48px"
   viewBox="0 0 48 48"
   enable-background="new 0 0 16 16"
   xml:space="preserve"
   fill="#000000"
   sodipodi:docname="action-cancel.svg"
   inkscape:version="0.92.3 (2405546, 2018-03-11)"><metadata
   id="metadata9"><rdf:RDF><cc:Work
       rdf:about=""><dc:format>image/svg+xml</dc:format><dc:type
         rdf:resource="http://purl.org/dc/dcmitype/StillImage" /></cc:Work></rdf:RDF></metadata><defs
   id="defs7" /><sodipodi:namedview
   pagecolor="#ffffff"
   bordercolor="#666666"
   borderopacity="1"
   objecttolerance="10"
   gridtolerance="10"
   guidetolerance="10"
   inkscape:pageopacity="0"
   inkscape:pageshadow="2"
   inkscape:window-width="640"
   inkscape:window-height="480"
   id="namedview5"
   showgrid="false"
   inkscape:zoom="9.3691649"
   inkscape:cx="27.99603"
   inkscape:cy="21.905486"
   inkscape:current-layer="Layer_1" /> <path
   d="M 39,0 H 9 C 4.029,0 0,4.029 0,9 v 30 c 0,4.971 4.029,9 9,9 h 30 c 4.968,0 9,-4.029 9,-9 V 9 C 48,4.029 43.968,0 39,0 Z m 3,39 c 0,1.659 -1.341,3 -3,3 H 9 C 7.344,42 6,40.659 6,39 V 9 C 6,7.341 7.344,6 9,6 h 30 c 1.659,0 3,1.341 3,3 z"
   id="path2"
   inkscape:connector-curvature="0"
   sodipodi:nodetypes="ssssssssssssssssss" /><g
   id="g840"
   transform="translate(0.132077,0.037734)"><path
     sodipodi:nodetypes="cc"
     inkscape:connector-curvature="0"
     id="path821"
     d="M 13.622638,33.622645 34.150939,14.377362"
     style="fill:none;stroke:#000000;stroke-width:6;stroke-linecap:round;stroke-linejoin:miter;stroke-miterlimit:4;stroke-dasharray:none;stroke-opacity:1" /><path
     sodipodi:nodetypes="cc"
     inkscape:connector-curvature="0"
     id="path821-3"
     d="M 34.113207,33.54717 13.584907,14.301887"
     style="fill:none;stroke:#000000;stroke-width:6;stroke-linecap:round;stroke-linejoin:miter;stroke-miterlimit:4;stroke-dasharray:none;stroke-opacity:1" /></g></svg>