<?xml version="1.0" standalone="no"?>
<!DOCTYPE svg PUBLIC "-//W3C//DTD SVG 20010904//EN"
 "http://www.w3.org/TR/2001/REC-SVG-20010904/DTD/svg10.dtd">
<svg version="1.0" xmlns="http://www.w3.org/2000/svg"
 width="1280.000000pt" height="884.000000pt" viewBox="0 0 1280.000000 884.000000"
 preserveAspectRatio="xMidYMid meet">
<metadata>
Created by potrace 1.15, written by Peter Selinger 2001-2017
</metadata>
<g transform="translate(0.000000,884.000000) scale(0.100000,-0.100000)"
fill="#000000" stroke="none">
<path d="M6445 8694 c-242 -174 -297 -218 -376 -301 -251 -267 -340 -657 -250
-1100 58 -283 194 -546 314 -609 25 -13 31 -14 51 -1 32 21 45 74 57 227 20
255 96 425 293 655 23 27 22 21 -14 -63 -96 -223 -134 -414 -135 -662 0 -192
10 -233 59 -246 34 -8 60 9 97 64 18 26 76 99 129 162 120 145 208 271 299
429 135 237 165 350 159 609 l-4 167 -47 114 c-26 63 -62 139 -78 168 -41 71
-228 331 -296 411 -32 39 -53 73 -53 88 0 13 -3 24 -7 24 -5 0 -93 -61 -198
-136z"/>
<path d="M4848 8757 c-69 -105 -134 -280 -159 -427 -14 -85 -11 -296 6 -393
59 -335 271 -707 574 -1005 77 -76 251 -216 258 -208 5 4 -94 388 -144 556
-25 85 -47 164 -50 175 -14 65 185 -358 246 -522 l26 -71 -2 264 c-2 214 -8
304 -28 467 -34 265 -61 432 -79 483 -75 214 -243 410 -558 652 -37 29 -69 52
-72 52 -2 0 -10 -10 -18 -23z"/>
<path d="M8235 8225 c-122 -74 -386 -226 -510 -295 -152 -83 -198 -115 -272
-188 -106 -104 -199 -252 -246 -392 -43 -126 -49 -193 -42 -442 7 -232 2 -294
-32 -361 l-14 -28 23 15 c49 32 86 98 142 253 42 115 111 242 159 292 38 40
100 70 145 71 43 0 40 -11 -9 -34 -84 -38 -201 -246 -254 -452 -33 -127 -52
-159 -133 -226 -19 -16 -31 -28 -27 -28 16 0 180 85 275 142 119 71 207 136
330 243 47 41 118 98 159 127 60 43 83 67 119 128 134 221 211 502 246 895 23
257 27 325 19 324 -5 -1 -39 -20 -78 -44z"/>
<path d="M9299 7897 c-179 -101 -262 -162 -360 -264 -125 -129 -190 -237 -284
-473 -104 -258 -157 -461 -175 -660 -9 -105 -3 -270 10 -270 3 0 14 17 24 38
27 57 93 158 163 249 80 104 214 242 220 226 8 -21 -25 -130 -61 -200 -41 -82
-127 -203 -209 -296 -33 -37 -58 -70 -55 -72 2 -2 55 21 118 51 413 199 697
531 803 940 40 155 72 398 72 559 0 125 -2 145 -23 190 -12 27 -28 53 -35 57
-29 18 -70 3 -208 -75z"/>
<path d="M3806 7913 c-9 -34 -45 -218 -61 -313 -39 -243 5 -582 103 -780 29
-60 58 -97 147 -186 148 -149 397 -355 411 -341 15 14 4 75 -25 146 -36 86
-86 240 -95 294 -7 39 7 50 32 25 7 -7 54 -118 104 -246 107 -272 104 -272
114 -17 17 420 -93 833 -292 1098 -95 127 -237 247 -371 316 -51 26 -60 26
-67 4z"/>
<path d="M2107 7428 c-15 -276 -4 -363 69 -550 87 -220 182 -367 338 -523 177
-177 386 -303 632 -384 195 -64 433 -106 554 -99 l55 3 -154 165 c-85 91 -173
184 -195 207 -22 24 -38 45 -35 47 2 2 107 -56 234 -129 126 -74 231 -133 232
-131 8 8 -23 146 -53 235 -58 174 -170 368 -316 549 -86 107 -250 268 -329
325 -89 63 -247 136 -399 185 -364 117 -452 147 -529 183 -46 21 -87 39 -91
39 -4 0 -10 -55 -13 -122z"/>
<path d="M10685 7224 c-38 -18 -266 -130 -505 -247 -546 -268 -612 -308 -766
-463 -104 -105 -168 -207 -210 -338 -65 -202 -182 -696 -172 -727 8 -24 249
180 456 388 100 100 128 124 113 95 -47 -93 -273 -378 -426 -538 -47 -49 -85
-90 -85 -91 0 -2 20 -3 44 -3 237 0 784 217 1147 456 161 106 201 149 269 288
101 206 155 409 184 696 15 142 33 521 25 519 -2 0 -35 -16 -74 -35z"/>
<path d="M4816 6642 c-16 -52 -36 -272 -36 -396 0 -320 77 -546 258 -754 104
-120 355 -312 445 -342 55 -17 70 0 30 34 -84 71 -197 236 -252 368 -25 62
-101 314 -101 337 0 3 25 -44 55 -104 30 -61 95 -166 144 -235 141 -196 216
-309 259 -389 l40 -73 16 48 c46 142 62 282 46 409 -38 307 -232 584 -620 885
-74 57 -167 133 -207 167 -59 51 -73 59 -77 45z"/>
<path d="M7974 6616 c6 -46 52 -118 126 -199 60 -66 68 -93 70 -232 1 -91 13
-133 64 -215 l36 -58 0 -183 c0 -210 4 -225 88 -319 l48 -54 -28 -73 c-29 -74
-61 -198 -56 -213 3 -8 68 127 104 214 l15 39 40 -39 c21 -21 48 -56 60 -78
l21 -41 -6 39 c-5 36 -26 74 -77 137 -19 24 -20 31 -10 84 13 70 14 153 3 140
-5 -6 -14 -32 -20 -60 -6 -27 -16 -63 -22 -79 l-11 -29 -41 44 c-23 24 -54 62
-70 84 l-30 40 8 129 c10 194 9 193 73 108 29 -39 65 -95 81 -124 20 -36 30
-46 30 -32 0 32 -54 131 -115 211 l-55 73 0 113 c0 131 -13 186 -63 261 -29
43 -37 67 -46 142 -14 107 -28 161 -43 170 -8 5 -9 -22 -4 -97 l8 -104 -32 30
c-41 39 -107 124 -132 172 l-20 38 6 -39z m292 -408 c15 -29 21 -238 7 -238
-8 0 -50 64 -77 117 -14 28 -15 43 -4 122 l12 89 24 -31 c13 -18 30 -44 38
-59z"/>
<path d="M6326 6601 c-10 -21 -31 -58 -47 -82 l-29 -44 -1 40 c-1 22 -5 54 -9
70 -6 21 -8 7 -8 -50 1 -77 -1 -83 -40 -147 -50 -81 -69 -135 -80 -230 -8 -65
-1 -190 13 -226 3 -8 -15 -39 -39 -70 -24 -32 -51 -71 -59 -88 -25 -49 -57
-188 -57 -246 0 -52 33 -204 51 -240 6 -12 -5 -44 -38 -113 -44 -91 -48 -105
-62 -237 -16 -154 -12 -188 35 -281 42 -84 112 -163 265 -297 172 -152 209
-192 209 -225 0 -13 -20 -61 -44 -107 -46 -88 -89 -170 -93 -177 -2 -2 -58 13
-125 33 -68 21 -131 40 -141 43 -16 4 -93 151 -112 211 l-6 22 72 -26 c41 -15
91 -38 112 -51 21 -13 41 -23 43 -21 2 2 -4 31 -12 63 -10 41 -24 67 -42 82
-24 20 -134 62 -203 77 -19 4 -32 19 -50 58 -52 115 -96 177 -208 291 -129
132 -172 162 -267 186 l-66 16 -33 98 c-38 115 -66 154 -162 223 -64 46 -82
53 -204 83 -74 17 -143 34 -154 36 -12 2 -41 37 -70 81 -71 110 -204 218 -305
248 -29 9 -87 16 -127 16 -67 0 -75 2 -96 27 -51 62 -123 135 -142 145 -16 9
-15 5 6 -18 26 -28 99 -138 99 -149 0 -3 -44 -5 -97 -5 -90 1 -123 5 -208 24
-28 7 -28 6 10 -18 45 -29 142 -52 257 -61 l77 -7 25 -41 c30 -52 107 -126
206 -201 94 -70 123 -84 219 -104 l77 -16 32 -76 c90 -211 213 -312 438 -360
l61 -13 18 -76 c36 -154 63 -210 133 -279 72 -70 156 -115 294 -157 l88 -26
33 -72 c43 -94 76 -130 223 -247 103 -83 130 -99 195 -119 41 -12 81 -26 88
-30 21 -11 28 -45 47 -230 9 -99 22 -178 31 -196 41 -78 124 -185 335 -427 70
-81 128 -149 128 -151 0 -2 -24 -7 -54 -10 -29 -3 -81 -13 -114 -22 l-60 -17
-61 -118 c-34 -65 -61 -120 -61 -124 0 -3 12 -1 27 5 64 24 177 41 433 64 l65
6 33 -54 c18 -30 41 -76 51 -102 l18 -46 27 62 c22 48 27 71 23 104 l-6 42
172 11 c95 5 175 7 179 3 11 -10 68 -181 68 -202 0 -38 -193 -96 -748 -228
l-93 -22 -190 106 c-239 133 -376 218 -439 273 -45 39 -48 44 -40 75 61 241
73 277 94 272 12 -3 80 -16 151 -30 72 -14 151 -36 178 -49 26 -13 47 -21 47
-19 0 2 -27 44 -60 92 -65 98 -101 123 -226 157 l-61 16 24 92 c14 52 27 134
30 193 5 92 4 105 -16 137 -51 81 -145 135 -253 143 -85 7 -141 -8 -221 -60
-36 -23 -63 -35 -65 -28 -8 24 -76 148 -102 186 -42 61 -106 121 -154 144 -34
17 -64 21 -161 23 -108 2 -125 0 -167 -21 -26 -13 -67 -40 -92 -62 l-44 -39
-68 32 c-67 30 -74 31 -213 32 l-145 1 -19 33 c-11 18 -17 35 -14 38 3 3 61 6
129 6 l123 1 -72 34 c-55 27 -89 36 -150 40 l-78 6 -45 50 c-70 79 -198 127
-343 127 -44 0 -54 5 -100 46 -63 55 -241 142 -317 155 -30 5 -120 9 -200 9
-130 0 -222 8 -283 25 -21 6 -21 6 1 -14 40 -34 88 -42 332 -50 129 -5 246
-13 260 -19 24 -9 140 -123 140 -137 0 -8 -128 5 -159 17 -40 15 -35 1 8 -21
22 -12 73 -26 113 -33 66 -11 77 -16 118 -56 58 -56 293 -176 365 -186 46 -7
54 -12 87 -56 l37 -49 -47 -35 c-26 -20 -58 -45 -72 -56 l-26 -21 -69 32
c-156 70 -322 44 -493 -78 l-74 -53 -73 15 c-113 23 -341 15 -457 -15 -50 -14
-134 -73 -258 -181 -125 -108 -219 -173 -279 -190 -34 -10 -40 -14 -25 -20 30
-12 100 -10 131 3 58 25 132 79 272 195 79 67 171 138 205 158 56 34 65 36
116 30 54 -6 227 -59 244 -75 11 -11 -85 -74 -160 -106 l-59 -25 77 3 c67 3
86 8 160 47 l84 43 70 -20 c107 -32 149 -34 325 -17 217 20 219 21 273 56 l46
31 84 -36 c124 -54 181 -63 258 -41 104 28 146 51 202 110 l54 57 73 -68 c172
-157 276 -226 367 -242 49 -9 58 -7 123 24 39 19 72 34 74 34 2 0 36 -63 75
-139 91 -176 122 -214 197 -237 68 -20 153 -61 153 -72 0 -5 -7 -31 -14 -58
-36 -122 -39 -173 -17 -323 12 -79 21 -158 21 -176 0 -24 9 -45 31 -70 36 -41
145 -115 241 -165 38 -19 68 -37 68 -40 0 -3 -19 -11 -42 -18 -109 -33 -201
-77 -243 -116 l-45 -41 -6 -145 -7 -145 27 -32 c38 -45 104 -91 229 -160 l107
-60 -122 -42 c-165 -57 -334 -140 -378 -186 l-35 -36 -3 -145 c-4 -163 -1
-173 70 -224 27 -20 36 -31 27 -35 -8 -2 -54 -19 -104 -36 -112 -39 -174 -70
-219 -110 -41 -36 -43 -43 -51 -283 l-6 -170 41 41 c75 73 287 169 660 297
l166 57 164 -66 c236 -95 382 -169 446 -228 l54 -49 0 118 0 118 -52 51 c-36
34 -91 70 -171 110 l-118 60 33 14 c18 8 92 42 164 77 170 82 187 100 203 221
6 49 11 124 11 166 0 71 -2 79 -32 112 -17 20 -58 55 -91 77 l-59 40 63 27
c75 32 136 69 164 100 16 19 21 45 28 176 7 119 7 162 -3 185 -18 42 -111 126
-219 195 -50 32 -89 60 -88 62 2 1 93 25 203 52 221 55 339 92 398 124 32 19
47 39 93 132 l56 110 -5 86 -5 87 51 6 c120 14 141 26 301 174 158 146 207
199 325 352 40 52 76 98 79 102 4 4 87 19 186 33 205 30 332 55 422 83 57 18
75 32 228 178 l166 159 102 12 c127 14 158 24 331 104 124 57 147 71 207 132
l68 68 103 -22 c122 -25 147 -22 306 27 111 35 120 39 172 93 34 35 76 95 110
159 51 95 57 102 90 108 68 11 150 37 161 50 9 11 -4 12 -76 7 l-87 -6 17 33
c10 19 42 58 72 88 30 30 48 52 41 50 -7 -3 -37 -13 -67 -23 -38 -12 -72 -35
-121 -81 l-67 -64 -104 0 c-59 0 -132 -7 -169 -16 -36 -8 -77 -17 -93 -19 -70
-10 -158 -66 -251 -161 l-93 -94 -59 15 c-79 20 -89 20 -185 -15 -46 -16 -84
-28 -86 -27 -1 2 26 23 60 47 99 71 340 318 354 363 6 20 8 37 5 37 -4 0 -110
-97 -237 -216 -126 -119 -271 -249 -320 -289 -50 -40 -110 -97 -133 -128 l-42
-54 -108 -6 c-130 -7 -165 -17 -394 -117 -209 -91 -361 -176 -486 -270 l-89
-67 -144 -26 c-213 -39 -230 -47 -352 -157 -58 -52 -103 -96 -102 -98 2 -2 34
6 72 17 74 22 298 64 314 59 5 -2 -17 -38 -49 -81 -32 -42 -87 -124 -121 -181
-72 -120 -55 -112 -251 -122 l-125 -7 -63 164 c-35 90 -74 192 -87 227 -18 46
-21 64 -12 67 7 2 37 11 67 19 30 8 76 29 102 45 39 25 55 44 89 112 37 74 41
89 37 139 -3 38 -16 82 -41 134 -20 43 -37 79 -37 81 0 2 44 13 98 25 186 43
245 77 292 170 25 49 30 72 30 129 l0 70 53 24 c50 23 132 85 124 94 -3 2 -20
-5 -38 -16 -38 -21 -140 -54 -147 -46 -10 9 -21 109 -16 134 16 73 20 77 117
104 51 14 101 29 111 33 18 7 19 3 13 -67 -3 -41 -8 -83 -12 -94 -7 -20 -6
-20 9 0 22 26 36 80 36 136 0 42 3 47 38 66 20 12 53 38 71 57 l35 36 -69 -35
c-61 -30 -71 -33 -78 -19 -14 24 -3 170 13 189 19 23 191 168 194 163 8 -9
-15 -199 -29 -238 l-15 -45 20 25 c27 34 38 78 51 193 l10 97 69 69 c79 79
106 126 116 202 6 43 18 67 66 132 32 43 58 82 58 87 0 5 3 17 6 27 3 10 -24
-13 -61 -52 l-66 -70 4 116 c2 63 9 125 16 137 6 12 8 22 3 22 -4 0 -17 -17
-27 -37 -14 -29 -19 -69 -23 -161 l-4 -123 -69 -74 c-81 -88 -94 -111 -110
-199 l-12 -66 -105 -97 c-124 -115 -141 -146 -142 -253 l0 -75 -78 -27 c-42
-16 -103 -44 -134 -63 -72 -45 -93 -86 -93 -178 0 -77 22 -65 -165 -91 -142
-20 -199 -40 -267 -95 -47 -38 -60 -55 -69 -90 -8 -33 -17 -46 -40 -56 -43
-18 -52 -31 -171 -240 l-108 -190 2 -67 c1 -65 0 -67 -27 -73 -41 -9 -80 -50
-155 -158 l-67 -98 53 27 c44 22 203 63 245 64 7 0 26 -35 43 -79 18 -43 58
-139 90 -212 l59 -134 -72 -6 c-39 -4 -129 -9 -201 -13 l-130 -5 -27 38 c-15
21 -127 164 -249 317 -122 154 -251 321 -286 372 -71 101 -70 100 -33 186 23
55 26 55 146 21 114 -33 200 -73 249 -116 34 -30 37 -31 25 -9 -35 68 -124
133 -270 195 -47 20 -86 38 -88 40 -2 2 6 33 17 70 30 97 27 155 -15 282 -55
164 -76 199 -274 448 -133 167 -207 273 -216 312 -4 16 9 50 41 110 75 138 66
136 108 30 59 -148 97 -268 104 -326 8 -67 17 -50 32 59 16 125 0 203 -79 379
l-38 85 25 50 c39 78 51 119 74 255 24 144 22 201 -14 306 -24 69 -24 72 -7
115 10 25 21 61 25 80 6 31 4 29 -20 -17 -15 -29 -31 -53 -35 -53 -9 0 -34 71
-50 143 -12 54 -2 84 68 207 l37 65 6 -110 5 -110 2 118 c2 116 2 119 41 190
39 73 67 145 59 153 -3 2 -13 -13 -22 -35z m-147 -882 c20 -82 21 -89 6 -135
-21 -62 -96 -214 -106 -214 -9 0 -45 95 -67 176 l-16 60 74 113 c48 74 76 108
80 99 4 -7 17 -52 29 -99z m-1776 -180 c87 -15 105 -27 147 -98 42 -70 74
-141 65 -141 -14 0 -156 33 -215 51 -70 20 -73 23 -179 177 l-23 33 73 -6 c41
-4 100 -11 132 -16z m4301 -359 c-8 -58 -27 -85 -106 -151 l-50 -43 7 45 c16
104 22 115 88 162 34 25 63 44 65 42 2 -1 0 -26 -4 -55z m-3753 -1 c46 -6 94
-15 107 -20 29 -11 64 -88 92 -201 12 -46 24 -92 27 -102 5 -18 1 -19 -88 -12
-52 4 -104 10 -117 13 -28 7 -83 86 -158 227 l-56 106 55 0 c29 0 92 -5 138
-11z m522 -500 l99 -30 38 -82 c21 -45 50 -120 64 -165 l25 -84 -52 7 c-79 10
-179 36 -205 52 -31 19 -76 117 -102 223 -12 47 -24 93 -27 104 -4 16 -1 17
29 11 18 -3 77 -20 131 -36z m5257 -353 c0 -9 -164 -243 -202 -288 -60 -72
-92 -88 -153 -77 -44 8 -205 76 -205 86 0 8 122 177 162 225 21 26 49 49 61
51 29 6 337 8 337 3z m-2734 -273 l7 -71 -35 -11 c-39 -13 -144 -17 -310 -13
l-106 2 -7 41 c-4 22 -3 45 2 50 5 5 101 25 213 44 112 19 206 37 209 40 12
12 21 -15 27 -82z m-3728 -26 c15 -12 62 -101 62 -117 0 -6 -30 -10 -74 -10
-84 0 -94 6 -171 96 l-49 57 109 -7 c61 -4 116 -13 123 -19z m5618 8 c49 -9
92 -19 97 -24 4 -4 -32 -54 -81 -112 l-89 -104 -64 2 c-35 1 -97 5 -137 8
l-72 7 32 41 c63 80 185 197 205 197 11 0 60 -7 109 -15z m-4635 -245 c77 -40
158 -143 258 -330 l50 -95 -42 -26 c-23 -15 -50 -29 -60 -32 -37 -14 -116 42
-325 227 -126 112 -124 103 -43 189 36 38 97 83 119 87 1 0 21 -9 43 -20z
m2340 -163 c33 -68 63 -142 66 -165 5 -41 5 -42 -33 -58 -28 -12 -71 -17 -154
-18 l-115 -1 -31 95 c-17 52 -35 118 -39 146 l-6 51 43 18 c42 17 171 52 196
54 7 1 40 -54 73 -122z m-2868 77 c61 -30 147 -92 147 -105 0 -33 -162 -169
-200 -169 -9 0 -63 23 -119 50 l-103 50 40 48 c56 66 79 85 96 79 10 -4 13 -1
10 7 -5 13 51 66 70 66 4 0 31 -11 59 -26z m4586 -50 c6 -5 -40 -72 -80 -117
-32 -35 -41 -39 -149 -61 -63 -14 -187 -34 -275 -45 -88 -12 -173 -23 -188
-26 -16 -3 -27 -1 -25 4 5 14 133 126 217 189 41 31 91 59 110 63 34 7 382 1
390 -7z m-5224 -47 c32 -16 77 -41 98 -54 l40 -25 -52 -52 c-90 -91 -84 -90
-246 -44 -77 22 -144 43 -148 48 -8 7 71 74 163 138 50 35 55 34 145 -11z
m2015 -173 c44 -9 51 -35 39 -146 -8 -76 -51 -273 -63 -285 -5 -6 -181 49
-218 68 -22 11 -43 30 -48 42 -4 12 -29 70 -54 130 l-45 107 52 27 c110 56
235 77 337 57z m680 -1642 c107 -53 235 -124 284 -156 l90 -58 -23 -17 c-33
-25 -153 -76 -313 -132 l-136 -48 -219 108 c-200 100 -361 193 -377 220 -10
16 143 85 294 131 74 23 140 43 145 45 35 11 81 -5 255 -93z m29 -723 c153
-81 226 -128 215 -139 -25 -25 -285 -105 -582 -180 l-163 -40 -107 46 c-117
50 -222 105 -222 115 0 15 163 78 425 165 154 51 289 93 299 93 11 1 71 -27
135 -60z"/>
<path d="M6862 6455 c-205 -215 -310 -383 -380 -610 -19 -64 -25 -109 -29
-225 -4 -130 -2 -158 22 -274 49 -237 124 -426 169 -426 11 0 11 9 3 48 -5 26
-10 112 -10 192 0 124 4 159 25 240 28 103 104 308 121 325 7 7 8 4 2 -10 -23
-62 -36 -201 -45 -475 -6 -168 -14 -325 -20 -350 -15 -74 -14 -83 13 -69 101
53 257 224 320 352 81 165 102 280 94 510 -7 201 -22 289 -92 547 -30 112 -60
233 -66 267 -6 35 -15 63 -19 63 -4 0 -53 -47 -108 -105z"/>
<path d="M11840 6530 c-23 -13 -163 -47 -393 -96 -234 -50 -326 -82 -444 -154
-189 -117 -277 -233 -400 -533 -78 -191 -150 -320 -258 -461 l-30 -40 90 49
c173 93 250 160 319 279 21 37 41 65 43 62 6 -6 -22 -97 -42 -137 -43 -85
-164 -191 -342 -300 -39 -24 -70 -45 -69 -46 4 -4 297 96 478 163 311 116 622
256 721 328 210 149 340 409 354 706 6 132 -4 193 -27 180z"/>
<path d="M1140 6314 c-19 -3 -160 -29 -312 -59 -153 -30 -288 -55 -300 -55
-51 0 -49 -14 18 -103 132 -176 348 -381 529 -501 167 -111 381 -199 560 -230
116 -20 269 -20 420 0 80 11 200 17 357 18 130 0 240 5 245 9 10 11 -28 43
-127 109 -128 85 -254 138 -415 174 -60 13 -1 16 111 5 178 -18 288 -47 419
-113 126 -64 191 -120 290 -253 12 -17 12 -13 -1 20 -55 137 -165 312 -267
422 -212 230 -685 467 -1078 539 -82 15 -379 27 -449 18z"/>
<path d="M7590 6174 c-144 -182 -199 -319 -187 -469 7 -101 52 -182 88 -159
20 12 40 67 50 141 12 86 24 111 35 69 13 -54 -6 -152 -47 -236 -46 -96 -50
-125 -16 -114 48 15 71 33 101 81 17 27 48 76 69 107 118 176 128 389 30 599
-20 42 -39 77 -42 77 -3 0 -40 -43 -81 -96z"/>
<path d="M11935 5641 c-418 -207 -476 -244 -590 -378 -148 -173 -195 -272
-220 -461 -16 -117 -20 -262 -7 -262 17 0 98 59 133 96 20 22 75 91 122 155
73 98 157 186 157 164 0 -13 -113 -181 -168 -250 -31 -38 -87 -102 -125 -142
l-69 -71 87 -7 c176 -15 341 19 528 108 142 67 208 111 275 178 97 98 202 344
236 549 28 174 47 510 29 510 -5 0 -179 -85 -388 -189z"/>
<path d="M7358 5338 c-9 -16 -13 -73 -15 -182 l-1 -159 -70 -101 c-74 -109
-87 -138 -98 -231 -6 -53 -13 -66 -69 -135 -162 -197 -182 -241 -171 -376 l6
-81 -88 -57 c-90 -58 -175 -126 -157 -126 6 0 64 29 129 65 66 36 121 63 123
61 11 -11 14 -116 4 -150 -14 -53 -5 -58 16 -10 11 25 18 67 19 114 l1 76 60
59 c91 92 97 116 12 50 -39 -30 -75 -55 -79 -55 -5 0 -11 39 -15 86 -9 107 -8
110 114 250 l93 108 -4 -130 c-3 -71 -8 -138 -13 -148 -6 -13 -5 -17 2 -13 22
14 44 105 54 225 l10 124 50 61 c72 89 100 155 108 252 5 62 13 89 33 120 43
68 88 163 88 187 0 16 -17 -2 -59 -66 l-60 -89 -6 35 c-4 20 -5 86 -3 147 1
61 2 111 1 111 -1 0 -8 -10 -15 -22z m-12 -512 c-4 -12 -33 -50 -66 -86 l-59
-65 6 55 c10 84 14 95 68 154 l50 54 3 -46 c2 -25 1 -55 -2 -66z"/>
<path d="M204 5298 c4 -23 18 -128 32 -233 54 -410 119 -790 159 -922 25 -82
109 -198 245 -334 174 -174 360 -293 603 -383 370 -138 837 -178 1013 -88 41
21 105 81 88 83 -5 1 -63 2 -129 3 -117 1 -123 2 -275 54 -167 58 -333 133
-445 202 -74 45 -228 161 -222 166 3 3 260 -95 697 -266 113 -44 179 -65 185
-59 13 13 11 228 -4 303 -13 69 -87 222 -162 333 -190 285 -471 520 -904 757
-278 152 -775 395 -863 421 -23 7 -23 5 -18 -37z"/>
<path d="M1798 5228 c-7 -167 27 -306 118 -477 118 -223 291 -399 487 -496
116 -57 182 -70 434 -86 162 -10 236 -10 385 0 100 7 187 16 191 21 5 4 -18
11 -50 14 -85 10 -156 32 -265 82 -99 45 -198 74 -255 74 -53 0 -46 16 18 39
68 25 62 26 269 -29 164 -44 268 -65 276 -57 21 21 -142 237 -244 322 -206
173 -377 257 -965 475 -120 44 -256 98 -304 120 -47 22 -87 40 -89 40 -2 0 -5
-19 -6 -42z"/>
<path d="M3245 5203 c28 -223 145 -443 297 -558 184 -140 427 -203 808 -211
l205 -4 -40 19 c-22 11 -87 42 -145 69 -58 27 -115 60 -126 73 -12 13 -36 59
-53 102 -85 215 -239 358 -472 441 -52 19 -175 52 -274 75 -99 23 -186 44
-194 47 -11 3 -12 -7 -6 -53z"/>
<path d="M10226 5169 c-58 -64 -82 -138 -97 -297 -13 -135 -5 -123 -172 -269
-53 -48 -95 -88 -93 -90 5 -5 96 49 175 104 35 24 65 42 68 39 9 -9 -28 -131
-54 -176 l-26 -45 38 35 c45 43 81 110 99 191 14 58 20 67 136 184 101 104
150 169 150 200 0 10 -49 -30 -159 -133 l-104 -96 7 101 c8 118 27 200 61 260
13 24 22 43 20 43 -2 0 -24 -23 -49 -51z"/>
<path d="M9479 4809 c-80 -15 -181 -37 -224 -48 -167 -46 -382 -185 -488 -316
-83 -103 -216 -356 -234 -445 -5 -28 -3 -32 13 -28 13 2 48 55 104 155 77 138
127 210 137 199 3 -2 0 -12 -5 -23 -6 -10 -29 -58 -52 -108 -23 -49 -61 -123
-86 -163 l-44 -73 46 31 c85 59 184 97 339 130 202 43 275 81 391 202 71 73
123 151 170 253 32 69 87 242 82 255 -2 3 -69 -6 -149 -21z"/>
<path d="M12103 3790 c-254 -55 -469 -167 -640 -333 -96 -93 -162 -184 -227
-314 -25 -51 -50 -93 -55 -93 -12 0 -111 90 -111 101 0 14 100 61 149 69 l46
7 -28 11 c-37 16 -77 15 -160 -3 l-69 -14 -48 38 c-61 48 -250 132 -313 139
-35 3 -66 -2 -123 -22 l-75 -27 -72 67 c-112 104 -148 124 -226 124 -83 0
-123 -11 -186 -51 l-49 -31 -16 23 c-8 13 -32 43 -53 66 -34 37 -45 43 -108
53 -39 7 -72 10 -75 8 -2 -3 34 -50 80 -106 64 -76 82 -103 72 -111 -26 -21
-102 -51 -136 -52 -35 -1 -35 -1 14 -16 45 -14 53 -13 117 7 l69 22 35 -31
c35 -30 89 -62 142 -82 24 -9 22 -5 -15 34 -52 58 -96 127 -85 137 24 23 168
110 181 110 17 0 46 -21 175 -124 l88 -70 -33 -18 c-71 -38 -189 -78 -230 -78
-32 0 -39 -3 -28 -10 37 -24 115 -12 322 50 22 7 35 2 80 -32 56 -43 277 -154
325 -164 17 -3 54 3 92 16 l63 21 37 -24 c20 -13 62 -30 94 -36 50 -11 57 -15
57 -37 0 -13 5 -24 11 -24 27 0 172 86 254 151 94 75 150 105 216 115 31 5 39
3 39 -9 0 -27 -92 -111 -180 -165 -47 -28 -118 -73 -159 -101 l-73 -49 26 -17
c38 -25 166 -63 290 -85 259 -47 588 -3 763 102 117 70 192 178 328 473 120
262 127 301 65 346 -41 30 -189 51 -385 55 -151 3 -195 0 -272 -16z m-1284
-522 c44 -40 76 -77 72 -81 -14 -14 -165 -41 -193 -34 -29 8 -178 121 -178
136 0 11 138 45 202 50 10 0 53 -32 97 -71z"/>
<path d="M1365 3154 c-123 -19 -256 -58 -410 -119 -147 -59 -168 -69 -505
-246 -135 -70 -292 -147 -348 -171 l-104 -43 57 -51 c157 -141 442 -258 721
-295 111 -15 388 -6 464 15 124 33 153 46 240 102 66 44 262 248 360 375 60
79 202 300 196 306 -2 3 -35 -20 -72 -51 -66 -55 -104 -76 -275 -154 -47 -22
-108 -60 -137 -86 -29 -25 -56 -46 -60 -46 -4 0 92 96 213 214 l220 213 -40
12 c-138 40 -357 50 -520 25z"/>
<path d="M4485 3130 c-283 -51 -501 -234 -664 -558 -42 -84 -84 -183 -79 -187
2 -1 111 2 243 5 262 8 345 20 464 70 153 63 281 176 394 347 87 132 113 147
332 194 55 11 104 24 108 28 8 8 -179 57 -328 87 -93 18 -395 27 -470 14z"/>
<path d="M3170 2933 c-83 -6 -274 -34 -365 -54 -179 -40 -343 -110 -482 -208
-109 -77 -256 -214 -326 -303 -98 -125 -237 -322 -237 -335 0 -28 359 -132
534 -153 219 -28 458 4 629 83 223 103 435 325 572 597 43 87 135 311 135 330
0 6 -26 -7 -57 -28 -169 -113 -374 -224 -438 -237 l-30 -6 35 20 c19 11 87 68
150 127 63 59 132 120 152 134 l37 27 -46 7 c-45 6 -174 6 -263 -1z"/>
</g>
</svg>
