<?xml version="1.0" standalone="no"?>
<!DOCTYPE svg PUBLIC "-//W3C//DTD SVG 20010904//EN"
 "http://www.w3.org/TR/2001/REC-SVG-20010904/DTD/svg10.dtd">
<svg version="1.0" xmlns="http://www.w3.org/2000/svg"
 width="290.000000pt" height="85.000000pt" viewBox="0 0 290.000000 85.000000"
 preserveAspectRatio="xMidYMid meet">
<metadata>
Created by potrace 1.16, written by Peter Selinger 2001-2019
</metadata>
<g transform="translate(0.000000,85.000000) scale(0.100000,-0.100000)"
fill="#000000" stroke="none">
<path d="M259 727 c-124 -35 -185 -146 -177 -321 3 -77 8 -99 32 -143 51 -92
150 -136 258 -114 79 17 118 44 118 81 0 16 -3 30 -6 30 -3 0 -24 -11 -47 -24
-110 -62 -222 -28 -264 82 -39 102 -10 271 55 322 58 46 148 45 213 -1 39 -28
51 -24 47 14 -2 27 -10 36 -48 54 -58 29 -123 36 -181 20z"/>
<path d="M1457 684 c-4 -4 -7 -29 -7 -56 l0 -48 -36 0 c-33 0 -35 -2 -32 -27
2 -23 8 -29 35 -31 l32 -3 3 -159 c3 -158 3 -160 30 -187 35 -35 121 -40 144
-8 21 29 12 40 -30 37 -25 -3 -44 2 -57 14 -17 15 -19 32 -19 161 l0 143 54 0
c39 0 55 4 60 15 12 32 -4 45 -60 45 l-53 0 -3 53 c-3 47 -5 52 -28 55 -14 2
-29 0 -33 -4z"/>
<path d="M1141 580 c-50 -12 -82 -50 -88 -101 -7 -58 21 -93 103 -130 34 -16
69 -35 78 -44 24 -24 20 -71 -6 -89 -32 -22 -106 -20 -146 4 -42 26 -42 26
-42 -10 0 -41 45 -63 125 -64 101 0 165 59 152 142 -8 48 -30 68 -114 107 -85
39 -106 68 -80 108 9 13 29 27 45 30 32 7 98 -8 107 -24 9 -14 25 -1 25 21 0
40 -88 68 -159 50z"/>
<path d="M1855 581 c-93 -24 -145 -102 -145 -219 0 -75 18 -130 56 -167 54
-54 161 -67 235 -29 41 20 87 80 96 121 26 129 -8 237 -87 278 -34 18 -116 26
-155 16z m116 -67 c40 -20 61 -73 61 -150 1 -108 -44 -164 -131 -164 -102 0
-157 145 -98 260 34 68 101 89 168 54z"/>
<path d="M2384 583 c-12 -2 -40 -20 -62 -39 l-41 -34 -3 32 c-2 28 -7 33 -28
33 l-25 0 0 -210 0 -210 30 0 30 0 3 152 3 151 39 36 c41 37 75 45 110 26 36
-19 44 -52 49 -210 l6 -155 25 0 25 0 5 152 c5 142 7 153 28 176 52 55 117 59
149 10 15 -22 19 -57 23 -183 l5 -155 25 0 25 0 3 171 c2 164 2 172 -21 205
-26 39 -85 63 -129 53 -16 -3 -49 -22 -75 -41 -36 -27 -48 -32 -54 -21 -5 7
-9 16 -9 19 0 24 -91 52 -136 42z"/>
<path d="M597 574 c-11 -11 -8 -294 3 -333 13 -46 46 -79 90 -91 52 -14 93 -3
139 36 l40 34 3 -32 c2 -28 7 -33 28 -33 l25 0 0 210 0 210 -30 0 -30 0 -3
-152 -3 -151 -39 -36 c-50 -45 -95 -49 -131 -10 -23 24 -24 33 -29 187 l-5
162 -25 3 c-14 2 -29 0 -33 -4z"/>
</g>
</svg>
